<svg id="SvgjsSvg1086" xmlns="http://www.w3.org/2000/svg" version="1.1" xmlns:xlink="http://www.w3.org/1999/xlink" xmlns:svgjs="http://svgjs.com/svgjs" width="38" height="38" viewBox="0 0 38 38"><title>Oval Copy 6</title><desc>Created with Avocode.</desc><defs id="SvgjsDefs1087"><filter id="SvgjsFilter1089" width="200%" height="200%" x="-50%" y="-50%"><feMorphology id="SvgjsFeMorphology1090" operator="dilate" radius="0" result="SvgjsFeMorphology1090Out" in="SourceGraphic"></feMorphology><feOffset id="SvgjsFeOffset1091" dx="0" dy="1" result="SvgjsFeOffset1091Out" in="SvgjsFeMorphology1090Out"></feOffset><feGaussianBlur id="SvgjsFeGaussianBlur1092" stdDeviation="1 " result="SvgjsFeGaussianBlur1092Out" in="SvgjsFeOffset1091Out"></feGaussianBlur><feComposite id="SvgjsFeComposite1093" in="SvgjsFeGaussianBlur1092Out" in2="SourceAlpha" operator="out" result="SvgjsFeComposite1093Out"></feComposite></filter></defs><path  id="SvgjsPath1088" d="M90 816C90 806.61116 97.61116 799 107 799C116.38884 799 124 806.61116 124 816C124 825.38884 116.38884 833 107 833C97.61116 833 90 825.38884 90 816Z " fill="#0a2024" fill-opacity="0.16" filter="url(#SvgjsFilter1089)" transform="matrix(1,0,0,1,-88,-798)"></path><path  id="SvgjsPath1094" d="M90 816C90 806.61116 97.61116 799 107 799C116.38884 799 124 806.61116 124 816C124 825.38884 116.38884 833 107 833C97.61116 833 90 825.38884 90 816Z " fill="{{ bg-color }}" fill-opacity="{{ opacity }}" transform="matrix(1,0,0,1,-88,-798)"></path><path  id="SvgjsPath1095" d="M112.86372 811.36416L107.58 808.18C107.17999999999999 807.9399999999999 106.53 807.9399999999999 106.13 808.18L100.72 811.4399999999999C100.53999999999999 811.55 100.37 811.7299999999999 100.25 811.9399999999999L105.97 815.06L106.7 815.4499999999999ZM105.58 815.77L100.14 812.16C100.05 812.35 100 812.56 100 812.74L100 819.26C100 819.4399999999999 100.05 819.63 100.13 819.8199999999999L105.58 816.1999999999999L105.89999999999999 815.9799999999999ZM113.71 812.74C113.71 812.73 113.71 812.72 113.71 812.71L107.67999999999999 815.98L113.71 819.26ZM112.87 811.36L112.86372 811.36416L112.89 811.38ZM106.7 816.52L105.97 816.91L100.23 820.03C100.36 820.26 100.53 820.4499999999999 100.72 820.56L106.13 823.8199999999999C106.53 824.06 107.17999999999999 824.06 107.58 823.8199999999999L112.89 820.6199999999999Z " fill="#ffffff" fill-opacity="{{ opacity }}" transform="matrix(1,0,0,1,-88,-798)"></path></svg>