<svg id="SvgjsSvg1076" xmlns="http://www.w3.org/2000/svg" version="1.1" xmlns:xlink="http://www.w3.org/1999/xlink" xmlns:svgjs="http://svgjs.com/svgjs" width="38" height="38" viewBox="0 0 38 38"><title>Oval Copy 17</title><desc>Created with Avocode.</desc><defs id="SvgjsDefs1077"><filter id="SvgjsFilter1079" width="200%" height="200%" x="-50%" y="-50%"><feMorphology id="SvgjsFeMorphology1080" operator="dilate" radius="0" result="SvgjsFeMorphology1080Out" in="SourceGraphic"></feMorphology><feOffset id="SvgjsFeOffset1081" dx="0" dy="1" result="SvgjsFeOffset1081Out" in="SvgjsFeMorphology1080Out"></feOffset><feGaussianBlur id="SvgjsFeGaussianBlur1082" stdDeviation="1 " result="SvgjsFeGaussianBlur1082Out" in="SvgjsFeOffset1081Out"></feGaussianBlur><feComposite id="SvgjsFeComposite1083" in="SvgjsFeGaussianBlur1082Out" in2="SourceAlpha" operator="out" result="SvgjsFeComposite1083Out"></feComposite></filter></defs><path id="SvgjsPath1078" d="M340 816C340 806.61116 347.61116 799 357 799C366.38884 799 374 806.61116 374 816C374 825.38884 366.38884 833 357 833C347.61116 833 340 825.38884 340 816Z " fill="#0a2024" fill-opacity="0.06" filter="url(#SvgjsFilter1079)" transform="matrix(1,0,0,1,-338,-798)"></path><path id="SvgjsPath1084" d="M340 816C340 806.61116 347.61116 799 357 799C366.38884 799 374 806.61116 374 816C374 825.38884 366.38884 833 357 833C347.61116 833 340 825.38884 340 816Z " fill="{{ bg-color }}" fill-opacity="1" transform="matrix(1,0,0,1,-338,-798)"></path><path id="SvgjsPath1085" d="M362.86372 811.36416L357.58 808.18C357.18 807.9399999999999 356.53 807.9399999999999 356.13 808.18L350.71999999999997 811.4399999999999C350.53999999999996 811.55 350.36999999999995 811.7299999999999 350.24999999999994 811.9399999999999L355.96999999999997 815.06L356.7 815.4499999999999ZM355.58 815.77L350.14 812.16C350.05 812.35 350 812.56 350 812.74L350 819.26C350 819.4399999999999 350.05 819.63 350.13 819.8199999999999L355.58 816.1999999999999L355.9 815.9799999999999ZM363.71 812.74C363.71 812.73 363.71 812.72 363.71 812.71L357.68 815.98L363.71 819.26ZM362.87 811.36L362.86372 811.36416L362.89 811.38ZM356.7 816.52L355.96999999999997 816.91L350.22999999999996 820.03C350.35999999999996 820.26 350.53 820.4499999999999 350.71999999999997 820.56L356.13 823.8199999999999C356.53 824.06 357.18 824.06 357.58 823.8199999999999L362.89 820.6199999999999Z " fill="#ffffff" fill-opacity="1" transform="matrix(1,0,0,1,-338,-798)"></path></svg>