<svg id="SvgjsSvg1096" xmlns="http://www.w3.org/2000/svg" version="1.1" xmlns:xlink="http://www.w3.org/1999/xlink" xmlns:svgjs="http://svgjs.com/svgjs" width="14" height="15" viewBox="0 0 14 15"><title>Oval Copy 18</title><desc>Created with Avocode.</desc><defs id="SvgjsDefs1097"><filter id="SvgjsFilter1099" width="200%" height="200%" x="-50%" y="-50%"><feMorphology id="SvgjsFeMorphology1100" operator="dilate" radius="0" result="SvgjsFeMorphology1100Out" in="SourceGraphic"></feMorphology><feOffset id="SvgjsFeOffset1101" dx="0" dy="1" result="SvgjsFeOffset1101Out" in="SvgjsFeMorphology1100Out"></feOffset><feGaussianBlur id="SvgjsFeGaussianBlur1102" stdDeviation="1 " result="SvgjsFeGaussianBlur1102Out" in="SvgjsFeOffset1101Out"></feGaussianBlur><feComposite id="SvgjsFeComposite1103" in="SvgjsFeGaussianBlur1102Out" in2="SourceAlpha" operator="out" result="SvgjsFeComposite1103Out"></feComposite></filter><clipPath id="SvgjsClipPath1107"></clipPath></defs><path id="SvgjsPath1098" d="M7 12C7 9.238579999999999 9.238579999999999 7 12 7C14.761420000000001 7 17 9.238579999999999 17 12C17 14.761420000000001 14.761420000000001 17 12 17C9.238579999999999 17 7 14.761420000000001 7 12Z " fill="#0a2024" fill-opacity="0.16" filter="url(#SvgjsFilter1099)" transform="matrix(1,0,0,1,-5,-5)"></path><path id="SvgjsPath1104" d="M7 12C7 9.238579999999999 9.238579999999999 7 12 7C14.761420000000001 7 17 9.238579999999999 17 12C17 14.761420000000001 14.761420000000001 17 12 17C9.238579999999999 17 7 14.761420000000001 7 12Z " fill="{{ bg-color }}" fill-opacity="1"  transform="matrix(1,0,0,1,-5,-5)"></path></svg>