<svg id="SvgjsSvg1059" xmlns="http://www.w3.org/2000/svg" version="1.1" xmlns:xlink="http://www.w3.org/1999/xlink" xmlns:svgjs="http://svgjs.com/svgjs" width="42" height="42" viewBox="0 0 42 42"><title>Oval Copy 7</title><desc>Created with Avocode.</desc><defs id="SvgjsDefs1060"><filter id="SvgjsFilter1062" width="200%" height="200%" x="-50%" y="-50%"><feMorphology id="SvgjsFeMorphology1063" operator="dilate" radius="0" result="SvgjsFeMorphology1063Out" in="SourceGraphic"></feMorphology><feOffset id="SvgjsFeOffset1064" dx="0" dy="2" result="SvgjsFeOffset1064Out" in="SvgjsFeMorphology1063Out"></feOffset><feGaussianBlur id="SvgjsFeGaussianBlur1065" stdDeviation="2 " result="SvgjsFeGaussianBlur1065Out" in="SvgjsFeOffset1064Out"></feGaussianBlur><feComposite id="SvgjsFeComposite1066" in="SvgjsFeGaussianBlur1065Out" in2="SourceAlpha" operator="out" result="SvgjsFeComposite1066Out"></feComposite></filter></defs><path id="SvgjsPath1061" d="M170 816C170 806.61116 177.61116 799 187 799C196.38884 799 204 806.61116 204 816C204 825.38884 196.38884 833 187 833C177.61116 833 170 825.38884 170 816Z " fill="#3a7775" fill-opacity="0.4" filter="url(#SvgjsFilter1062)" transform="matrix(1,0,0,1,-166,-797)"></path><path id="SvgjsPath1067" d="M170 816C170 806.61116 177.61116 799 187 799C196.38884 799 204 806.61116 204 816C204 825.38884 196.38884 833 187 833C177.61116 833 170 825.38884 170 816Z " fill="{{ bg-color }}" fill-opacity="1" transform="matrix(1,0,0,1,-166,-797)"></path><path id="SvgjsPath1068" d="M192.86372 811.36416L187.58 808.18C187.18 807.9399999999999 186.53 807.9399999999999 186.13000000000002 808.18L180.72000000000003 811.4399999999999C180.54000000000002 811.55 180.37000000000003 811.7299999999999 180.25000000000003 811.9399999999999L185.97000000000003 815.06L186.70000000000002 815.4499999999999ZM185.58 815.77L180.14000000000001 812.16C180.05 812.35 180.00000000000003 812.56 180.00000000000003 812.74L180.00000000000003 819.26C180.00000000000003 819.4399999999999 180.05000000000004 819.63 180.13000000000002 819.8199999999999L185.58 816.1999999999999L185.9 815.9799999999999ZM193.71 812.74C193.71 812.73 193.71 812.72 193.71 812.71L187.68 815.98L193.71 819.26ZM192.87 811.36L192.86372 811.36416L192.89000000000001 811.38ZM186.7 816.52L185.97 816.91L180.23 820.03C180.35999999999999 820.26 180.53 820.4499999999999 180.72 820.56L186.13 823.8199999999999C186.53 824.06 187.18 824.06 187.57999999999998 823.8199999999999L192.89 820.6199999999999Z " fill="#ffffff" fill-opacity="1" transform="matrix(1,0,0,1,-166,-797)"></path></svg>