<svg id="SvgjsSvg1069" xmlns="http://www.w3.org/2000/svg" version="1.1" xmlns:xlink="http://www.w3.org/1999/xlink" xmlns:svgjs="http://svgjs.com/svgjs" width="74" height="74" viewBox="0 0 74 74">
    <title>Oval Copy 8</title>
    <desc>Created with Avocode.</desc>
    <defs id="SvgjsDefs1070">
        <clipPath id="SvgjsClipPath1074">
            <path id="SvgjsPath1073" d="M230 853L230 779L304 779L304 853ZM267 833C276.38884 833 284 825.38884 284 816C284 806.61116 276.38884 799 267 799C257.61116 799 250 806.61116 250 816C250 825.38884 257.61116 833 267 833Z " fill="#ffffff"></path>
        </clipPath>
    </defs>
    <path id="SvgjsPath1071" d="M250 816C250 806.61116 257.61116 799 267 799C276.38884 799 284 806.61116 284 816C284 825.38884 276.38884 833 267 833C257.61116 833 250 825.38884 250 816Z " fill="{{ bg-color }}" fill-opacity="{{ opacity }}" transform="matrix(1,0,0,1,-230,-779)"></path>
    <path id="SvgjsPath1072" d="M250 816C250 806.61116 257.61116 799 267 799C276.38884 799 284 806.61116 284 816C284 825.38884 276.38884 833 267 833C257.61116 833 250 825.38884 250 816Z " fill-opacity="0" fill="#ffffff" stroke-dasharray="0" stroke-linejoin="miter" stroke-linecap="butt" stroke-opacity="0.2" stroke="{{ bg-color }}" stroke-miterlimit="50" stroke-width="{{ stroke-width }}" clip-path="url(&quot;#SvgjsClipPath1074&quot;)" transform="matrix(1,0,0,1,-230,-779)"></path>
    <path id="SvgjsPath1075" d="M272.86372 811.36416L267.58 808.18C267.18 807.9399999999999 266.53 807.9399999999999 266.13 808.18L260.71999999999997 811.4399999999999C260.53999999999996 811.55 260.36999999999995 811.7299999999999 260.24999999999994 811.9399999999999L265.96999999999997 815.06L266.7 815.4499999999999ZM265.58 815.77L260.14 812.16C260.05 812.35 260 812.56 260 812.74L260 819.26C260 819.4399999999999 260.05 819.63 260.13 819.8199999999999L265.58 816.1999999999999L265.9 815.9799999999999ZM273.71 812.74C273.71 812.73 273.71 812.72 273.71 812.71L267.68 815.98L273.71 819.26ZM272.87 811.36L272.86372 811.36416L272.89 811.38ZM266.7 816.52L265.96999999999997 816.91L260.22999999999996 820.03C260.35999999999996 820.26 260.53 820.4499999999999 260.71999999999997 820.56L266.13 823.8199999999999C266.53 824.06 267.18 824.06 267.58 823.8199999999999L272.89 820.6199999999999Z " fill="#ffffff" fill-opacity="1" transform="matrix(1,0,0,1,-230,-779)"></path>
</svg>