<svg id="SvgjsSvg1008" xmlns="http://www.w3.org/2000/svg" version="1.1" xmlns:xlink="http://www.w3.org/1999/xlink" xmlns:svgjs="http://svgjs.com/svgjs" width="20" height="19" viewBox="0 0 20 19"><title>Group</title><desc>Created with Avocode.</desc><defs id="SvgjsDefs1009"></defs><path id="SvgjsPath1010" d="M41.1 357.81L38.38 357.81L38.38 356L36.57 356L36.57 361.43L38.38 361.43L38.38 359.62L41.1 359.62L41.1 373.19L24.810000000000002 373.19L24.810000000000002 359.62L26.62 359.62L26.62 357.81L24.810000000000002 357.81C23.810000000000002 357.81 23.000000000000004 358.62 23.000000000000004 359.62L23.000000000000004 373.19C23.000000000000004 374.19 23.810000000000002 375 24.810000000000002 375L41.1 375C42.09 375 42.9 374.19 42.9 373.19L42.9 359.62C42.9 358.62 42.089999999999996 357.81 41.1 357.81 " fill="#ffffff" fill-opacity="1" transform="matrix(1,0,0,1,-23,-356)"></path><path id="SvgjsPath1011" d="M29.81 359.62L36.14 359.62L36.14 357.81L29.810000000000002 357.81L29.810000000000002 356L28.000000000000004 356L28.000000000000004 361.43L29.810000000000002 361.43Z " fill="#ffffff" fill-opacity="1" transform="matrix(1,0,0,1,-23,-356)"></path><path id="SvgjsPath1012" d="M30.62 363L27 363L27 366.62L30.62 366.62Z " fill="#ffffff" fill-opacity="1" transform="matrix(1,0,0,1,-23,-356)"></path><path id="SvgjsPath1013" d="M34.62 363L30.999999999999996 363L30.999999999999996 366.62L34.62 366.62Z " fill="#ffffff" fill-opacity="1" transform="matrix(1,0,0,1,-23,-356)"></path><path id="SvgjsPath1014" d="M36 366.62L39.62 366.62L39.62 363L36 363Z " fill="#ffffff" fill-opacity="1" transform="matrix(1,0,0,1,-23,-356)"></path><path id="SvgjsPath1015" d="M27 371.62L30.62 371.62L30.62 368L27 368Z " fill="#ffffff" fill-opacity="1" transform="matrix(1,0,0,1,-23,-356)"></path><path id="SvgjsPath1016" d="M31 371.62L34.62 371.62L34.62 368L30.999999999999996 368Z " fill="#ffffff" fill-opacity="1" transform="matrix(1,0,0,1,-23,-356)"></path></svg>