<svg id="SvgjsSvg1000" xmlns="http://www.w3.org/2000/svg" version="1.1" xmlns:xlink="http://www.w3.org/1999/xlink" xmlns:svgjs="http://svgjs.com/svgjs" width="142.98567545268725" height="113.03680000000003" viewBox="0 0 142.98567545268725 113.03680000000003"><title>Designer</title><desc>Created with Avocode.</desc><defs id="SvgjsDefs1001"></defs><path id="SvgjsPath1007" d="M777.52 316.07C780.8199999999999 308.2 782.65 299.56 782.65 290.5C782.65 253.77 752.73 224 715.8199999999999 224C678.92 224 649 253.77 649 290.5C649 299.56 650.83 308.2 654.13 316.07Z " fill="#def9fc" fill-opacity="1" transform="matrix(1,0,0,1,-649,-221.96319999999997)"></path><path id="SvgjsPath1008" d="M765.15 316.56C769.1999999999999 308.92 771.51 300.23 771.51 290.99C771.51 260.62 746.77 236 716.26 236C685.74 236 661 260.62 661 290.99C661 300.23 663.31 308.92 667.36 316.56Z " fill="#c1f3f9" fill-opacity="1" transform="matrix(1,0,0,1,-649,-221.96319999999997)"></path><path id="SvgjsPath1009" d="M661.18 316H657 " fill-opacity="0" fill="#ffffff" stroke-dasharray="0" stroke-linejoin="miter" stroke-linecap="round" stroke-opacity="1" stroke="#504b46" stroke-miterlimit="50" stroke-width="2.0736" transform="matrix(1,0,0,1,-649,-221.96319999999997)"></path><path id="SvgjsPath1010" d="M774.18 316H770 " fill-opacity="0" fill="#ffffff" stroke-dasharray="0" stroke-linejoin="miter" stroke-linecap="round" stroke-opacity="1" stroke="#504b46" stroke-miterlimit="50" stroke-width="2.0736" transform="matrix(1,0,0,1,-649,-221.96319999999997)"></path><path id="SvgjsPath1011" d="M666 316H766.24 " fill-opacity="0" fill="#ffffff" stroke-dasharray="0" stroke-linejoin="miter" stroke-linecap="round" stroke-opacity="1" stroke="#504b46" stroke-miterlimit="50" stroke-width="2.0736" transform="matrix(1,0,0,1,-649,-221.96319999999997)"></path><path id="SvgjsPath1012" d="M724.41 279H711.88C700.35 279 691 288.37 691 299.93V300.97H701.44V315.62H734.85V300.97H745.2900000000001V299.93C745.2900000000001 288.37 735.95 279 724.4100000000001 279 " fill="#4f6fc0" fill-opacity="1" transform="matrix(1,0,0,1,-649,-221.96319999999997)"></path><path id="SvgjsPath1013" d="M744.29 297.17C744.24 296.78000000000003 744.1899999999999 296.39000000000004 744.11 296C744.0500000000001 296.14 744 296.29 744 296.45C744 296.72999999999996 744.11 296.97999999999996 744.29 297.17 " fill="#ffffff" fill-opacity="1" transform="matrix(1,0,0,1,-649,-221.96319999999997)"></path><path id="SvgjsPath1014" d="M740.04 290C739.4699999999999 290 739 290.47 739 291.05C739 291.62 739.47 292.09000000000003 740.04 292.09000000000003C740.62 292.09000000000003 741.0899999999999 291.62 741.0899999999999 291.05C741.0899999999999 290.47 740.6199999999999 290 740.04 290 " fill="#ffffff" fill-opacity="1" transform="matrix(1,0,0,1,-649,-221.96319999999997)"></path><path id="SvgjsPath1015" d="M739.89 301C739.5 301 739.18 301.22 739 301.53H740.77C740.59 301.21999999999997 740.27 301 739.89 301 " fill="#ffffff" fill-opacity="1" transform="matrix(1,0,0,1,-649,-221.96319999999997)"></path><path id="SvgjsPath1016" d="M729 280.88C729 281.46 729.47 281.93 730.04 281.93C730.62 281.93 731.0899999999999 281.46 731.0899999999999 280.88C731.0899999999999 280.71999999999997 731.04 280.57 730.9699999999999 280.43C730.4999999999999 280.27 730.0099999999999 280.13 729.5199999999999 280C729.2099999999999 280.18 728.9999999999999 280.5 728.9999999999999 280.88 " fill="#ffffff" fill-opacity="1" transform="matrix(1,0,0,1,-649,-221.96319999999997)"></path><path id="SvgjsPath1017" d="M735.04 287.09C735.62 287.09 736.0899999999999 286.61999999999995 736.0899999999999 286.04999999999995C736.0899999999999 285.46999999999997 735.6199999999999 284.99999999999994 735.04 284.99999999999994C734.4699999999999 284.99999999999994 734 285.46999999999997 734 286.04999999999995C734 286.61999999999995 734.47 287.09 735.04 287.09 " fill="#ffffff" fill-opacity="1" transform="matrix(1,0,0,1,-649,-221.96319999999997)"></path><path id="SvgjsPath1018" d="M730.04 292.09C730.62 292.09 731.0899999999999 291.61999999999995 731.0899999999999 291.04999999999995C731.0899999999999 290.46999999999997 730.6199999999999 289.99999999999994 730.04 289.99999999999994C729.4699999999999 289.99999999999994 729 290.46999999999997 729 291.04999999999995C729 291.61999999999995 729.47 292.09 730.04 292.09 " fill="#ffffff" fill-opacity="1" transform="matrix(1,0,0,1,-649,-221.96319999999997)"></path><path id="SvgjsPath1019" d="M735.04 297.09C735.62 297.09 736.0899999999999 296.61999999999995 736.0899999999999 296.04999999999995C736.0899999999999 295.46999999999997 735.6199999999999 294.99999999999994 735.04 294.99999999999994C734.4699999999999 294.99999999999994 734 295.46999999999997 734 296.04999999999995C734 296.61999999999995 734.47 297.09 735.04 297.09 " fill="#ffffff" fill-opacity="1" transform="matrix(1,0,0,1,-649,-221.96319999999997)"></path><path id="SvgjsPath1020" d="M730.04 303.09C730.62 303.09 731.0899999999999 302.61999999999995 731.0899999999999 302.04999999999995C731.0899999999999 301.46999999999997 730.6199999999999 300.99999999999994 730.04 300.99999999999994C729.4699999999999 300.99999999999994 729 301.46999999999997 729 302.04999999999995C729 302.61999999999995 729.47 303.09 730.04 303.09 " fill="#ffffff" fill-opacity="1" transform="matrix(1,0,0,1,-649,-221.96319999999997)"></path><path id="SvgjsPath1021" d="M734 306.89C734 307.27 734.22 307.59 734.52 307.77V306C734.22 306.18 734 306.5 734 306.89 " fill="#ffffff" fill-opacity="1" transform="matrix(1,0,0,1,-649,-221.96319999999997)"></path><path id="SvgjsPath1022" d="M730.04 311C729.4699999999999 311 729 311.47 729 312.05C729 312.62 729.47 313.09000000000003 730.04 313.09000000000003C730.62 313.09000000000003 731.0899999999999 312.62 731.0899999999999 312.05C731.0899999999999 311.47 730.6199999999999 311 730.04 311 " fill="#ffffff" fill-opacity="1" transform="matrix(1,0,0,1,-649,-221.96319999999997)"></path><path id="SvgjsPath1023" d="M719.04 282.09C719.62 282.09 720.0899999999999 281.61999999999995 720.0899999999999 281.04999999999995C720.0899999999999 280.46999999999997 719.6199999999999 279.99999999999994 719.04 279.99999999999994C718.4699999999999 279.99999999999994 718 280.46999999999997 718 281.04999999999995C718 281.61999999999995 718.47 282.09 719.04 282.09 " fill="#ffffff" fill-opacity="1" transform="matrix(1,0,0,1,-649,-221.96319999999997)"></path><path id="SvgjsPath1024" d="M725.04 287.09C725.62 287.09 726.0899999999999 286.61999999999995 726.0899999999999 286.04999999999995C726.0899999999999 285.46999999999997 725.6199999999999 284.99999999999994 725.04 284.99999999999994C724.4699999999999 284.99999999999994 724 285.46999999999997 724 286.04999999999995C724 286.61999999999995 724.47 287.09 725.04 287.09 " fill="#ffffff" fill-opacity="1" transform="matrix(1,0,0,1,-649,-221.96319999999997)"></path><path id="SvgjsPath1025" d="M719.04 292.09C719.62 292.09 720.0899999999999 291.61999999999995 720.0899999999999 291.04999999999995C720.0899999999999 290.46999999999997 719.6199999999999 289.99999999999994 719.04 289.99999999999994C718.4699999999999 289.99999999999994 718 290.46999999999997 718 291.04999999999995C718 291.61999999999995 718.47 292.09 719.04 292.09 " fill="#ffffff" fill-opacity="1" transform="matrix(1,0,0,1,-649,-221.96319999999997)"></path><path id="SvgjsPath1026" d="M725.04 297.09C725.62 297.09 726.0899999999999 296.61999999999995 726.0899999999999 296.04999999999995C726.0899999999999 295.46999999999997 725.6199999999999 294.99999999999994 725.04 294.99999999999994C724.4699999999999 294.99999999999994 724 295.46999999999997 724 296.04999999999995C724 296.61999999999995 724.47 297.09 725.04 297.09 " fill="#ffffff" fill-opacity="1" transform="matrix(1,0,0,1,-649,-221.96319999999997)"></path><path id="SvgjsPath1027" d="M719.04 301C718.4699999999999 301 718 301.47 718 302.05C718 302.62 718.47 303.09000000000003 719.04 303.09000000000003C719.62 303.09000000000003 720.0899999999999 302.62 720.0899999999999 302.05C720.0899999999999 301.47 719.6199999999999 301 719.04 301 " fill="#ffffff" fill-opacity="1" transform="matrix(1,0,0,1,-649,-221.96319999999997)"></path><path id="SvgjsPath1028" d="M725.04 306C724.4699999999999 306 724 306.47 724 307.05C724 307.62 724.47 308.09000000000003 725.04 308.09000000000003C725.62 308.09000000000003 726.0899999999999 307.62 726.0899999999999 307.05C726.0899999999999 306.47 725.6199999999999 306 725.04 306 " fill="#ffffff" fill-opacity="1" transform="matrix(1,0,0,1,-649,-221.96319999999997)"></path><path id="SvgjsPath1029" d="M719.04 311C718.4699999999999 311 718 311.47 718 312.05C718 312.62 718.47 313.09000000000003 719.04 313.09000000000003C719.62 313.09000000000003 720.0899999999999 312.62 720.0899999999999 312.05C720.0899999999999 311.47 719.6199999999999 311 719.04 311 " fill="#ffffff" fill-opacity="1" transform="matrix(1,0,0,1,-649,-221.96319999999997)"></path><path id="SvgjsPath1030" d="M709.04 282.09C709.62 282.09 710.0899999999999 281.61999999999995 710.0899999999999 281.04999999999995C710.0899999999999 280.46999999999997 709.6199999999999 279.99999999999994 709.04 279.99999999999994C708.4699999999999 279.99999999999994 708 280.46999999999997 708 281.04999999999995C708 281.61999999999995 708.47 282.09 709.04 282.09 " fill="#ffffff" fill-opacity="1" transform="matrix(1,0,0,1,-649,-221.96319999999997)"></path><path id="SvgjsPath1031" d="M714.04 287.09C714.62 287.09 715.0899999999999 286.61999999999995 715.0899999999999 286.04999999999995C715.0899999999999 285.46999999999997 714.6199999999999 284.99999999999994 714.04 284.99999999999994C713.4699999999999 284.99999999999994 713 285.46999999999997 713 286.04999999999995C713 286.61999999999995 713.47 287.09 714.04 287.09 " fill="#ffffff" fill-opacity="1" transform="matrix(1,0,0,1,-649,-221.96319999999997)"></path><path id="SvgjsPath1032" d="M709.04 290C708.4699999999999 290 708 290.47 708 291.05C708 291.62 708.47 292.09000000000003 709.04 292.09000000000003C709.62 292.09000000000003 710.0899999999999 291.62 710.0899999999999 291.05C710.0899999999999 290.47 709.6199999999999 290 709.04 290 " fill="#ffffff" fill-opacity="1" transform="matrix(1,0,0,1,-649,-221.96319999999997)"></path><path id="SvgjsPath1033" d="M714.04 295C713.4699999999999 295 713 295.47 713 296.05C713 296.62 713.47 297.09000000000003 714.04 297.09000000000003C714.62 297.09000000000003 715.0899999999999 296.62 715.0899999999999 296.05C715.0899999999999 295.47 714.6199999999999 295 714.04 295 " fill="#ffffff" fill-opacity="1" transform="matrix(1,0,0,1,-649,-221.96319999999997)"></path><path id="SvgjsPath1034" d="M709.04 301C708.4699999999999 301 708 301.47 708 302.05C708 302.62 708.47 303.09000000000003 709.04 303.09000000000003C709.62 303.09000000000003 710.0899999999999 302.62 710.0899999999999 302.05C710.0899999999999 301.47 709.6199999999999 301 709.04 301 " fill="#ffffff" fill-opacity="1" transform="matrix(1,0,0,1,-649,-221.96319999999997)"></path><path id="SvgjsPath1035" d="M714.04 306C713.4699999999999 306 713 306.47 713 307.05C713 307.62 713.47 308.09000000000003 714.04 308.09000000000003C714.62 308.09000000000003 715.0899999999999 307.62 715.0899999999999 307.05C715.0899999999999 306.47 714.6199999999999 306 714.04 306 " fill="#ffffff" fill-opacity="1" transform="matrix(1,0,0,1,-649,-221.96319999999997)"></path><path id="SvgjsPath1036" d="M709.04 311C708.4699999999999 311 708 311.47 708 312.05C708 312.62 708.47 313.09000000000003 709.04 313.09000000000003C709.62 313.09000000000003 710.0899999999999 312.62 710.0899999999999 312.05C710.0899999999999 311.47 709.6199999999999 311 709.04 311 " fill="#ffffff" fill-opacity="1" transform="matrix(1,0,0,1,-649,-221.96319999999997)"></path><path id="SvgjsPath1037" d="M704.04 285C703.4699999999999 285 703 285.47 703 286.05C703 286.62 703.47 287.09000000000003 704.04 287.09000000000003C704.62 287.09000000000003 705.0899999999999 286.62 705.0899999999999 286.05C705.0899999999999 285.47 704.6199999999999 285 704.04 285 " fill="#ffffff" fill-opacity="1" transform="matrix(1,0,0,1,-649,-221.96319999999997)"></path><path id="SvgjsPath1038" d="M698.04 292.09C698.62 292.09 699.0899999999999 291.61999999999995 699.0899999999999 291.04999999999995C699.0899999999999 290.46999999999997 698.6199999999999 289.99999999999994 698.04 289.99999999999994C697.4699999999999 289.99999999999994 697 290.46999999999997 697 291.04999999999995C697 291.61999999999995 697.47 292.09 698.04 292.09 " fill="#ffffff" fill-opacity="1" transform="matrix(1,0,0,1,-649,-221.96319999999997)"></path><path id="SvgjsPath1039" d="M704.04 295C703.4699999999999 295 703 295.47 703 296.05C703 296.62 703.47 297.09000000000003 704.04 297.09000000000003C704.62 297.09000000000003 705.0899999999999 296.62 705.0899999999999 296.05C705.0899999999999 295.47 704.6199999999999 295 704.04 295 " fill="#ffffff" fill-opacity="1" transform="matrix(1,0,0,1,-649,-221.96319999999997)"></path><path id="SvgjsPath1040" d="M698.89 301C698.5 301 698.18 301.22 698 301.53H699.77C699.59 301.21999999999997 699.27 301 698.89 301 " fill="#ffffff" fill-opacity="1" transform="matrix(1,0,0,1,-649,-221.96319999999997)"></path><path id="SvgjsPath1041" d="M704.04 306C703.4699999999999 306 703 306.47 703 307.05C703 307.62 703.47 308.09000000000003 704.04 308.09000000000003C704.62 308.09000000000003 705.0899999999999 307.62 705.0899999999999 307.05C705.0899999999999 306.47 704.6199999999999 306 704.04 306 " fill="#ffffff" fill-opacity="1" transform="matrix(1,0,0,1,-649,-221.96319999999997)"></path><path id="SvgjsPath1042" d="M693.04 295C692.4699999999999 295 692 295.47 692 296.05C692 296.62 692.47 297.09000000000003 693.04 297.09000000000003C693.62 297.09000000000003 694.0899999999999 296.62 694.0899999999999 296.05C694.0899999999999 295.47 693.6199999999999 295 693.04 295 " fill="#ffffff" fill-opacity="1" transform="matrix(1,0,0,1,-649,-221.96319999999997)"></path><path id="SvgjsPath1043" d="M745.29 299.93C745.29 288.37 735.9499999999999 279 724.41 279H711.88C700.35 279 691 288.37 691 299.93V302.02C691 290.46 700.35 287.37 711.88 287.37H724.41C735.9499999999999 287.37 745.29 290.46 745.29 302.02Z " fill="#ffffff" fill-opacity="0.2" transform="matrix(1,0,0,1,-649,-221.96319999999997)"></path><path id="SvgjsPath1044" d="M701 299V315.74H734.41V299 " fill-opacity="0" fill="#ffffff" stroke-dasharray="0" stroke-linejoin="round" stroke-linecap="round" stroke-opacity="1" stroke="#504b46" stroke-miterlimit="50" stroke-width="2.0736" transform="matrix(1,0,0,1,-649,-221.96319999999997)"></path><path id="SvgjsPath1045" d="M734.85 300.97V300.97H745.2900000000001V299.93C745.2900000000001 288.37 735.95 279 724.4100000000001 279H711.8800000000001C700.3500000000001 279 691.0000000000001 288.37 691.0000000000001 299.93V300.97H701.4400000000002 " fill-opacity="0" fill="#ffffff" stroke-dasharray="0" stroke-linejoin="round" stroke-linecap="round" stroke-opacity="1" stroke="#504b46" stroke-miterlimit="50" stroke-width="2.0736" transform="matrix(1,0,0,1,-649,-221.96319999999997)"></path><path id="SvgjsPath1046" d="M701 303.09V301 " fill="#edf2f4" fill-opacity="1" transform="matrix(1,0,0,1,-649,-221.96319999999997)"></path><path id="SvgjsPath1047" d="M701 303.09V301 " fill-opacity="0" fill="#ffffff" stroke-dasharray="0" stroke-linejoin="round" stroke-linecap="round" stroke-opacity="1" stroke="#504b46" stroke-miterlimit="50" stroke-width="2.0736" transform="matrix(1,0,0,1,-649,-221.96319999999997)"></path><path id="SvgjsPath1048" d="M718 303V314.51 " fill="#ffd183" fill-opacity="1" transform="matrix(1,0,0,1,-649,-221.96319999999997)"></path><path id="SvgjsPath1049" d="M718 303V314.51 " fill-opacity="0" fill="#ffffff" stroke-dasharray="0" stroke-linejoin="round" stroke-linecap="round" stroke-opacity="1" stroke="#4f4a45" stroke-miterlimit="50" stroke-width="2.0736" transform="matrix(1,0,0,1,-649,-221.96319999999997)"></path><path id="SvgjsPath1050" d="M762.23 319.83H759.1H757.01H754.79C749.37 319.83 744.3499999999999 317.93 744.3499999999999 304.14V301H735.9999999999999V304.14C735.9999999999999 324.03 746.2199999999999 328.2 754.7899999999998 328.2H757.0099999999999H759.0999999999999H762.2299999999999C764.5399999999998 328.2 766.4099999999999 326.33 766.4099999999999 324.02C766.4099999999999 321.7 764.5399999999998 319.83 762.2299999999999 319.83 " fill="#ffd4c3" fill-opacity="1" transform="matrix(1,0,0,1,-649,-221.96319999999997)"></path><path id="SvgjsPath1051" d="M762.23 319.83H759.1H757.01H754.79C749.37 319.83 744.3499999999999 317.93 744.3499999999999 304.14V301H735.9999999999999V304.14C735.9999999999999 324.03 746.2199999999999 328.2 754.7899999999998 328.2H757.0099999999999H759.0999999999999H762.2299999999999C764.5399999999998 328.2 766.4099999999999 326.33 766.4099999999999 324.02C766.4099999999999 321.7 764.5399999999998 319.83 762.2299999999999 319.83Z " fill-opacity="0" fill="#ffffff" stroke-dasharray="0" stroke-linejoin="miter" stroke-linecap="butt" stroke-opacity="1" stroke="#4f4a45" stroke-miterlimit="50" stroke-width="2.0736" transform="matrix(1,0,0,1,-649,-221.96319999999997)"></path><path id="SvgjsPath1052" d="M724.53 281.19C724.53 283.29 723.48 285.25 721.74 286.42C719.63 287.82 716.89 287.82 714.79 286.42C713.05 285.25 712 283.29 712 281.19V272H724.53Z " fill="#ffdfd1" fill-opacity="1" transform="matrix(1,0,0,1,-649,-221.96319999999997)"></path><path id="SvgjsPath1053" d="M712 279.1C712.16 279.17 712.31 279.25 712.47 279.32000000000005C715.98 280.72 720.5500000000001 280.72 724.0600000000001 279.32000000000005C724.22 279.25000000000006 724.37 279.1700000000001 724.5300000000001 279.1V272H712.0000000000001Z " fill="#ffcab3" fill-opacity="1" transform="matrix(1,0,0,1,-649,-221.96319999999997)"></path><path id="SvgjsPath1054" d="M724.53 281.19C724.53 283.29 723.48 285.25 721.74 286.42C719.63 287.82 716.89 287.82 714.79 286.42C713.05 285.25 712 283.29 712 281.19V272H724.53Z " fill-opacity="0" fill="#ffffff" stroke-dasharray="0" stroke-linejoin="round" stroke-linecap="round" stroke-opacity="1" stroke="#504b46" stroke-miterlimit="50" stroke-width="2.0736" transform="matrix(1,0,0,1,-649,-221.96319999999997)"></path><path id="SvgjsPath1055" d="M738.76 255.97C738.76 254.02 737.43 252.4 735.63 251.94V250.74C735.63 241.5 727.11 234 717.88 234C708.66 234 700.13 241.5 700.13 250.74V251.94C698.33 252.4 697 254.02 697 255.97C697 257.94 698.36 259.57 700.18 260.02C700.65 268.84 708.9599999999999 275.84999999999997 717.88 275.84999999999997C726.8 275.84999999999997 735.11 268.84 735.59 260.02C737.4100000000001 259.57 738.76 257.94 738.76 255.96999999999997 " fill="#ffd4c3" fill-opacity="1" transform="matrix(1,0,0,1,-649,-221.96319999999997)"></path><path id="SvgjsPath1056" d="M738.76 255.97C738.76 254.02 737.43 252.4 735.63 251.94V250.74C735.63 241.5 727.11 234 717.88 234C708.66 234 700.13 241.5 700.13 250.74V251.94C698.33 252.4 697 254.02 697 255.97C697 257.94 698.36 259.57 700.18 260.02C700.65 268.84 708.9599999999999 275.84999999999997 717.88 275.84999999999997C726.8 275.84999999999997 735.11 268.84 735.59 260.02C737.4100000000001 259.57 738.76 257.94 738.76 255.96999999999997Z " fill-opacity="0" fill="#ffffff" stroke-dasharray="0" stroke-linejoin="miter" stroke-linecap="butt" stroke-opacity="1" stroke="#4f4a45" stroke-miterlimit="50" stroke-width="2.0736" transform="matrix(1,0,0,1,-649,-221.96319999999997)"></path><path id="SvgjsPath1057" d="M714.26 257.09C713.62 255.85999999999999 712.49 254.99999999999997 711.13 254.99999999999997C709.78 254.99999999999997 708.65 255.85999999999999 708 257.09 " fill-opacity="0" fill="#ffffff" stroke-dasharray="0" stroke-linejoin="round" stroke-linecap="round" stroke-opacity="1" stroke="#504b46" stroke-miterlimit="50" stroke-width="2.0736" transform="matrix(1,0,0,1,-649,-221.96319999999997)"></path><path id="SvgjsPath1058" d="M727.26 257.09C726.62 255.85999999999999 725.49 254.99999999999997 724.13 254.99999999999997C722.78 254.99999999999997 721.65 255.85999999999999 721 257.09 " fill-opacity="0" fill="#ffffff" stroke-dasharray="0" stroke-linejoin="round" stroke-linecap="round" stroke-opacity="1" stroke="#504b46" stroke-miterlimit="50" stroke-width="2.0736" transform="matrix(1,0,0,1,-649,-221.96319999999997)"></path><path id="SvgjsPath1059" d="M719.17 248.65C725.0799999999999 248.65 730.4599999999999 247.21 734.53 244.87C731.87 238.52 725.15 234 718 234C711.28 234 704.95 237.98 702 243.71C706.21 246.73000000000002 712.33 248.65 719.17 248.65 " fill="#f9beaa" fill-opacity="1" transform="matrix(1,0,0,1,-649,-221.96319999999997)"></path><path id="SvgjsPath1060" d="M732.28 242.86C732.3399999999999 244.96 737.36 273.78000000000003 718.14 274.94C699.35 276.08 702.65 242.51 705.61 242.51C710.83 243.54999999999998 721.39 246.12 732.63 241.45999999999998C739.02 215.29999999999998 693.51 220.93999999999997 695.04 242.51C699.3399999999999 240.42 700.26 243.54999999999998 700.26 246.69C700.26 256.7 700.78 263.17 700.26 266.57C696.77 289.3 712.22 290.46 718.31 302.67C725.0999999999999 289.77000000000004 741.02 284.26 735.76 265.79C734.98 263.04 737.71 242.86 732.28 242.86 " fill="#ffd183" fill-opacity="1" transform="matrix(1,0,0,1,-649,-221.96319999999997)"></path><path id="SvgjsPath1061" d="M736.21 276.02C736.14 276.02 736.07 276 736 276C736.22 276.08 736.44 276.17 736.65 276.23C736.66 276.17 736.67 276.09000000000003 736.68 276.02000000000004C736.52 276.02000000000004 736.37 276.03000000000003 736.2099999999999 276.02000000000004 " fill="#ffc258" fill-opacity="1" transform="matrix(1,0,0,1,-649,-221.96319999999997)"></path><path id="SvgjsPath1062" d="M700 276.02C700.01 276.07 700.01 276.12 700.02 276.16999999999996C700.18 276.11999999999995 700.34 276.05999999999995 700.49 275.99999999999994C700.42 275.99999999999994 700.36 276.0199999999999 700.28 276.0199999999999C700.1899999999999 276.0199999999999 700.1 276.0199999999999 700 276.0199999999999 " fill="#ffc258" fill-opacity="1" transform="matrix(1,0,0,1,-649,-221.96319999999997)"></path><path id="SvgjsPath1063" d="M716.87 274.63C714.63 274.56 712.74 273.98 711.14 273C708.02 274.51 704.35 275.45 700.47 275.65C700.32 275.71 700.15 275.77 700 275.82C700.24 277.87 700.7 279.68 701.33 281.3C707.6700000000001 280.79 713.38 278.35 716.87 274.63 " fill="#ffc258" fill-opacity="1" transform="matrix(1,0,0,1,-649,-221.96319999999997)"></path><path id="SvgjsPath1064" d="M735.51 275.91C731.41 275.71000000000004 727.5699999999999 274.66 724.35 273C722.84 273.88 721.07 274.49 719 274.75C722.41 278.48 728.03 280.96 734.29 281.53C735.15 279.86999999999995 735.8 278.09 736.15 276.15C735.9399999999999 276.08 735.72 275.98999999999995 735.51 275.90999999999997 " fill="#ffc258" fill-opacity="1" transform="matrix(1,0,0,1,-649,-221.96319999999997)"></path><path id="SvgjsPath1065" d="M698.55 243.05C703.75 231.51000000000002 724.06 227.53 732.17 235.48000000000002C730.5999999999999 216.38000000000002 692.64 222.76000000000002 694.04 242.50000000000003C696.49 241.31000000000003 697.8399999999999 241.81000000000003 698.55 243.05000000000004 " fill="#ffedd8" fill-opacity="1" transform="matrix(1,0,0,1,-649,-221.96319999999997)"></path><path id="SvgjsPath1066" d="M732.28 242.86C732.3399999999999 244.96 737.36 273.78000000000003 718.14 274.94C699.35 276.08 702.65 242.51 705.61 242.51C710.83 243.54999999999998 721.39 246.12 732.63 241.45999999999998C739.02 215.29999999999998 693.51 220.93999999999997 695.04 242.51C699.3399999999999 240.42 700.26 243.54999999999998 700.26 246.69C700.26 256.7 700.78 263.17 700.26 266.57C696.77 289.3 712.22 290.46 718.31 302.67C725.0999999999999 289.77000000000004 741.5 283.97 735.2399999999999 265.40000000000003C734.3199999999999 262.69000000000005 739.93 242.86000000000004 732.2799999999999 242.86000000000004Z " fill-opacity="0" fill="#ffffff" stroke-dasharray="0" stroke-linejoin="round" stroke-linecap="round" stroke-opacity="1" stroke="#4f4a45" stroke-miterlimit="50" stroke-width="2.0736" transform="matrix(1,0,0,1,-649,-221.96319999999997)"></path><path id="SvgjsPath1067" d="M738.8 266.76C741.67 265.59 743.41 270.38 739.75 271.03999999999996C734.33 272.01 722.09 261.65 717.56 264.49999999999994C713.04 261.6499999999999 700.8 272.00999999999993 695.38 271.03999999999996C691.72 270.37999999999994 693.46 265.59 696.34 266.76C688.85 260.7 685.82 276.59999999999997 699.64 276.01C707.28 275.68 714.17 272.46999999999997 717.56 267.64C720.9599999999999 272.46999999999997 727.8499999999999 275.68 735.4899999999999 276.01C749.31 276.59999999999997 746.2799999999999 260.7 738.7999999999998 266.76 " fill="#ffd183" fill-opacity="1" transform="matrix(1,0,0,1,-649,-221.96319999999997)"></path><path id="SvgjsPath1068" d="M738.8 266.76C741.67 265.59 743.41 270.38 739.75 271.03999999999996C734.33 272.01 722.09 261.65 717.56 264.49999999999994C713.04 261.6499999999999 700.8 272.00999999999993 695.38 271.03999999999996C691.72 270.37999999999994 693.46 265.59 696.34 266.76C688.85 260.7 685.82 276.59999999999997 699.64 276.01C707.28 275.68 714.17 272.46999999999997 717.56 267.64C720.9599999999999 272.46999999999997 727.8499999999999 275.68 735.4899999999999 276.01C749.31 276.59999999999997 746.2799999999999 260.7 738.7999999999998 266.76Z " fill-opacity="0" fill="#ffffff" stroke-dasharray="0" stroke-linejoin="round" stroke-linecap="round" stroke-opacity="1" stroke="#4f4a45" stroke-miterlimit="50" stroke-width="2.0736" transform="matrix(1,0,0,1,-649,-221.96319999999997)"></path><path id="SvgjsPath1069" d="M723.41 324.02C723.41 321.7 721.54 319.83 719.23 319.83H716.1H714.01H711.79C706.37 319.83 701.3499999999999 317.93 701.3499999999999 304.14V301H692.9999999999999V304.14C692.9999999999999 324.03 703.2199999999999 328.2 711.7899999999998 328.2H714.0099999999999H716.0999999999999H719.2299999999999C721.5399999999998 328.2 723.4099999999999 326.33 723.4099999999999 324.02 " fill="#ffd4c3" fill-opacity="1" transform="matrix(1,0,0,1,-649,-221.96319999999997)"></path><path id="SvgjsPath1070" d="M723.41 324.02C723.41 321.7 721.54 319.83 719.23 319.83H716.1H714.01H711.79C706.37 319.83 701.3499999999999 317.93 701.3499999999999 304.14V301H692.9999999999999V304.14C692.9999999999999 324.03 703.2199999999999 328.2 711.7899999999998 328.2H714.0099999999999H716.0999999999999H719.2299999999999C721.5399999999998 328.2 723.4099999999999 326.33 723.4099999999999 324.02Z " fill-opacity="0" fill="#ffffff" stroke-dasharray="0" stroke-linejoin="miter" stroke-linecap="butt" stroke-opacity="1" stroke="#4f4a45" stroke-miterlimit="50" stroke-width="2.0736" transform="matrix(1,0,0,1,-649,-221.96319999999997)"></path><path id="SvgjsPath1071" d="M786.18 331.14C786.18 332.87 769.3499999999999 334.28 748.5899999999999 334.28C727.8299999999999 334.28 710.9999999999999 332.86999999999995 710.9999999999999 331.14C710.9999999999999 329.40999999999997 727.8299999999999 328 748.5899999999999 328C769.3499999999999 328 786.18 329.41 786.18 331.14 " fill="#e4edf1" fill-opacity="1" transform="matrix(1,0,0,1,-649,-221.96319999999997)"></path><path id="SvgjsPath1072" d="M740.18 324.44H736L745.97 293.45C746.25 292.59 747.0600000000001 292 747.96 292H750.62 " fill="#e4edf1" fill-opacity="1" transform="matrix(1,0,0,1,-649,-221.96319999999997)"></path><path id="SvgjsPath1073" d="M740.18 324.44H736L745.97 293.45C746.25 292.59 747.0600000000001 292 747.96 292H750.62 " fill-opacity="0" fill="#ffffff" stroke-dasharray="0" stroke-linejoin="round" stroke-linecap="butt" stroke-opacity="1" stroke="#4f4a45" stroke-miterlimit="50" stroke-width="2.0736" transform="matrix(1,0,0,1,-649,-221.96319999999997)"></path><path id="SvgjsPath1074" d="M780.72 324.44H740L750.44 292H788.2900000000001C788.96 292 789.59 292.32 789.9800000000001 292.86C790.3700000000001 293.40000000000003 790.4900000000001 294.1 790.2800000000001 294.74Z " fill="#adbbc7" fill-opacity="1" transform="matrix(1,0,0,1,-649,-221.96319999999997)"></path><path id="SvgjsPath1075" d="M780.72 324.44H740L750.44 292H788.2900000000001C788.96 292 789.59 292.32 789.9800000000001 292.86C790.3700000000001 293.40000000000003 790.4900000000001 294.1 790.2800000000001 294.74Z " fill-opacity="0" fill="#ffffff" stroke-dasharray="0" stroke-linejoin="round" stroke-linecap="butt" stroke-opacity="1" stroke="#4f4a45" stroke-miterlimit="50" stroke-width="2.0736" transform="matrix(1,0,0,1,-649,-221.96319999999997)"></path><path id="SvgjsPath1076" d="M777.98 292H750.44L740 324.44H745.62Z " fill="#cbd8de" fill-opacity="1" transform="matrix(1,0,0,1,-649,-221.96319999999997)"></path><path id="SvgjsPath1077" d="M780.81 324H738V329.23H776.63C778.9399999999999 329.23 780.81 327.36 780.81 325.05Z " fill="#cbd8de" fill-opacity="1" transform="matrix(1,0,0,1,-649,-221.96319999999997)"></path><path id="SvgjsPath1078" d="M780.81 324H738V329.23H776.63C778.9399999999999 329.23 780.81 327.36 780.81 325.05Z " fill-opacity="0" fill="#ffffff" stroke-dasharray="0" stroke-linejoin="round" stroke-linecap="butt" stroke-opacity="1" stroke="#4f4a45" stroke-miterlimit="50" stroke-width="2.0736" transform="matrix(1,0,0,1,-649,-221.96319999999997)"></path><path id="SvgjsPath1079" d="M738.88 324H718V325.05C718 327.36 719.87 329.23 722.18 329.23H738.88Z " fill="#e4edf1" fill-opacity="1" transform="matrix(1,0,0,1,-649,-221.96319999999997)"></path><path id="SvgjsPath1080" d="M738.88 324H718V325.05C718 327.36 719.87 329.23 722.18 329.23H738.88Z " fill-opacity="0" fill="#ffffff" stroke-dasharray="0" stroke-linejoin="round" stroke-linecap="butt" stroke-opacity="1" stroke="#4f4a45" stroke-miterlimit="50" stroke-width="2.0736" transform="matrix(1,0,0,1,-649,-221.96319999999997)"></path><path id="SvgjsPath1081" d="M768.98 306.98C768.96 305.68 770.04 305.06 770.09 305.03000000000003C769.48 304.14000000000004 768.5400000000001 304.02000000000004 768.21 304.01000000000005C767.4100000000001 303.93000000000006 766.6500000000001 304.4800000000001 766.24 304.4800000000001C765.84 304.4800000000001 765.21 304.0200000000001 764.55 304.0300000000001C763.68 304.05000000000007 762.88 304.5400000000001 762.43 305.3200000000001C761.52 306.8900000000001 762.1999999999999 309.2200000000001 763.0799999999999 310.5000000000001C763.5099999999999 311.1300000000001 764.03 311.8300000000001 764.6999999999999 311.8000000000001C765.3499999999999 311.77000000000015 765.5899999999999 311.3800000000001 766.3799999999999 311.3800000000001C767.1599999999999 311.3800000000001 767.3899999999999 311.8000000000001 768.0699999999999 311.79000000000013C768.77 311.78000000000014 769.2099999999999 311.15000000000015 769.64 310.52000000000015C770.14 309.8000000000001 770.34 309.10000000000014 770.35 309.0600000000002C770.34 309.0600000000002 768.99 308.5400000000002 768.98 306.9800000000002 " fill="#edf2f4" fill-opacity="1" transform="matrix(1,0,0,1,-649,-221.96319999999997)"></path><path id="SvgjsPath1082" d="M768.98 306.98C768.96 305.68 770.04 305.06 770.09 305.03000000000003C769.48 304.14000000000004 768.5400000000001 304.02000000000004 768.21 304.01000000000005C767.4100000000001 303.93000000000006 766.6500000000001 304.4800000000001 766.24 304.4800000000001C765.84 304.4800000000001 765.21 304.0200000000001 764.55 304.0300000000001C763.68 304.05000000000007 762.88 304.5400000000001 762.43 305.3200000000001C761.52 306.8900000000001 762.1999999999999 309.2200000000001 763.0799999999999 310.5000000000001C763.5099999999999 311.1300000000001 764.03 311.8300000000001 764.6999999999999 311.8000000000001C765.3499999999999 311.77000000000015 765.5899999999999 311.3800000000001 766.3799999999999 311.3800000000001C767.1599999999999 311.3800000000001 767.3899999999999 311.8000000000001 768.0699999999999 311.79000000000013C768.77 311.78000000000014 769.2099999999999 311.15000000000015 769.64 310.52000000000015C770.14 309.8000000000001 770.34 309.10000000000014 770.35 309.0600000000002C770.34 309.0600000000002 768.99 308.5400000000002 768.98 306.9800000000002Z " fill-opacity="0" fill="#ffffff" stroke-dasharray="0" stroke-linejoin="round" stroke-linecap="butt" stroke-opacity="1" stroke="#4f4a45" stroke-miterlimit="50" stroke-width="2.0736" transform="matrix(1,0,0,1,-649,-221.96319999999997)"></path><path id="SvgjsPath1083" d="M768 300.94L768.94 300 " fill-opacity="0" fill="#ffffff" stroke-dasharray="0" stroke-linejoin="round" stroke-linecap="round" stroke-opacity="1" stroke="#4f4a45" stroke-miterlimit="50" stroke-width="2.0736" transform="matrix(1,0,0,1,-649,-221.96319999999997)"></path><path id="SvgjsPath1084" d="M780.72 324.44H740L750.44 292H788.2900000000001C788.96 292 789.59 292.32 789.9800000000001 292.86C790.3700000000001 293.40000000000003 790.4900000000001 294.1 790.2800000000001 294.74Z " fill-opacity="0" fill="#ffffff" stroke-dasharray="0" stroke-linejoin="round" stroke-linecap="butt" stroke-opacity="1" stroke="#4f4a45" stroke-miterlimit="50" stroke-width="2.0736" transform="matrix(1,0,0,1,-649,-221.96319999999997)"></path><path id="SvgjsPath1085" d="M673.92 284C672.6899999999999 285.23 672.6899999999999 287.21 673.92 288.44L675.75 290.28C676.97 291.5 676.97 293.48999999999995 675.75 294.71999999999997L673.92 296.55999999999995C672.6899999999999 297.78 672.6899999999999 299.7699999999999 673.92 300.98999999999995 " fill-opacity="0" fill="#ffffff" stroke-dasharray="0" stroke-linejoin="round" stroke-linecap="round" stroke-opacity="1" stroke="#ffffff" stroke-miterlimit="50" stroke-width="2.0736" transform="matrix(1,0,0,1,-649,-221.96319999999997)"></path><path id="SvgjsPath1086" d="M681.92 284C680.6899999999999 285.23 680.6899999999999 287.21 681.92 288.44L683.75 290.28C684.97 291.5 684.97 293.48999999999995 683.75 294.71999999999997L681.92 296.55999999999995C680.6899999999999 297.78 680.6899999999999 299.7699999999999 681.92 300.98999999999995 " fill-opacity="0" fill="#ffffff" stroke-dasharray="0" stroke-linejoin="round" stroke-linecap="round" stroke-opacity="1" stroke="#ffffff" stroke-miterlimit="50" stroke-width="2.0736" transform="matrix(1,0,0,1,-649,-221.96319999999997)"></path><path id="SvgjsPath1087" d="M692.24 332.09C692.24 333.25 685.69 334.19 677.62 334.19C669.54 334.19 663 333.25 663 332.09C663 330.94 669.54 330 677.62 330C685.69 330 692.24 330.94 692.24 332.09 " fill="#e4edf1" fill-opacity="1" transform="matrix(1,0,0,1,-649,-221.96319999999997)"></path><path id="SvgjsPath1088" d="M667.35 327.74C662.75 327.74 659 323.99 659 319.37C659 314.75 662.75 311 667.35 311V315.19C665.0500000000001 315.19 663.1800000000001 317.06 663.1800000000001 319.37C663.1800000000001 321.68 665.0500000000001 323.56 667.35 323.56Z " fill="#ffffff" fill-opacity="1" transform="matrix(1,0,0,1,-649,-221.96319999999997)"></path><path id="SvgjsPath1089" d="M667.35 327.74C662.75 327.74 659 323.99 659 319.37C659 314.75 662.75 311 667.35 311V315.19C665.0500000000001 315.19 663.1800000000001 317.06 663.1800000000001 319.37C663.1800000000001 321.68 665.0500000000001 323.56 667.35 323.56Z " fill-opacity="0" fill="#ffffff" stroke-dasharray="0" stroke-linejoin="round" stroke-linecap="butt" stroke-opacity="1" stroke="#4f4a45" stroke-miterlimit="50" stroke-width="2.0736" transform="matrix(1,0,0,1,-649,-221.96319999999997)"></path><path id="SvgjsPath1090" d="M688.62 329.06C688.62 330.22 687.69 331.16 686.53 331.16H670.0899999999999C668.9399999999999 331.16 667.9999999999999 330.22 667.9999999999999 329.06V307.09000000000003C667.9999999999999 305.94000000000005 668.9399999999999 305.00000000000006 670.0899999999999 305.00000000000006H686.53C687.6899999999999 305.00000000000006 688.62 305.94000000000005 688.62 307.09000000000003Z " fill="#ffffff" fill-opacity="1" transform="matrix(1,0,0,1,-649,-221.96319999999997)"></path><path id="SvgjsPath1091" d="M688.62 329.06C688.62 330.22 687.69 331.16 686.53 331.16H670.0899999999999C668.9399999999999 331.16 667.9999999999999 330.22 667.9999999999999 329.06V307.09000000000003C667.9999999999999 305.94000000000005 668.9399999999999 305.00000000000006 670.0899999999999 305.00000000000006H686.53C687.6899999999999 305.00000000000006 688.62 305.94000000000005 688.62 307.09000000000003Z " fill-opacity="0" fill="#ffffff" stroke-dasharray="0" stroke-linejoin="round" stroke-linecap="butt" stroke-opacity="1" stroke="#4f4a45" stroke-miterlimit="50" stroke-width="2.0736" transform="matrix(1,0,0,1,-649,-221.96319999999997)"></path><path id="SvgjsPath1092" d="M681.55 318.28C681.55 318.28 685.0899999999999 316.65999999999997 685.0899999999999 314.05999999999995C685.0899999999999 311.44999999999993 681.9499999999999 311.24999999999994 681.55 313.85999999999996C681.14 311.24999999999994 678 311.44999999999993 678 314.25999999999993C678 317.05999999999995 681.55 318.2799999999999 681.55 318.2799999999999 " fill="#e05b4a" fill-opacity="1" transform="matrix(1,0,0,1,-649,-221.96319999999997)"></path><path id="SvgjsPath1093" d="M674 313V317.19 " fill-opacity="0" fill="#ffffff" stroke-dasharray="0" stroke-linejoin="round" stroke-linecap="round" stroke-opacity="1" stroke="#4f4a45" stroke-miterlimit="50" stroke-width="2.0736" transform="matrix(1,0,0,1,-649,-221.96319999999997)"></path><path id="SvgjsPath1094" d="M673 324.19V320L676.13 324.19V320 " fill-opacity="0" fill="#ffffff" stroke-dasharray="0" stroke-linejoin="round" stroke-linecap="round" stroke-opacity="1" stroke="#4f4a45" stroke-miterlimit="50" stroke-width="2.0736" transform="matrix(1,0,0,1,-649,-221.96319999999997)"></path><path id="SvgjsPath1095" d="M680 320L681.57 322.09L683.13 320 " fill-opacity="0" fill="#ffffff" stroke-dasharray="0" stroke-linejoin="round" stroke-linecap="round" stroke-opacity="1" stroke="#4f4a45" stroke-miterlimit="50" stroke-width="2.0736" transform="matrix(1,0,0,1,-649,-221.96319999999997)"></path><path id="SvgjsPath1096" d="M681 324.09V322 " fill-opacity="0" fill="#ffffff" stroke-dasharray="0" stroke-linejoin="round" stroke-linecap="round" stroke-opacity="1" stroke="#4f4a45" stroke-miterlimit="50" stroke-width="2.0736" transform="matrix(1,0,0,1,-649,-221.96319999999997)"></path><path id="SvgjsPath1097" d="M673 313H675.09 " fill-opacity="0" fill="#ffffff" stroke-dasharray="0" stroke-linejoin="round" stroke-linecap="round" stroke-opacity="1" stroke="#4f4a45" stroke-miterlimit="50" stroke-width="2.0736" transform="matrix(1,0,0,1,-649,-221.96319999999997)"></path><path id="SvgjsPath1098" d="M673 317H675.09 " fill-opacity="0" fill="#ffffff" stroke-dasharray="0" stroke-linejoin="round" stroke-linecap="round" stroke-opacity="1" stroke="#4f4a45" stroke-miterlimit="50" stroke-width="2.0736" transform="matrix(1,0,0,1,-649,-221.96319999999997)"></path></svg>