<?xml version="1.0" encoding="UTF-8" standalone="no"?>
<svg width="7px" height="4px" viewBox="0 0 7 4" version="1.1" xmlns="http://www.w3.org/2000/svg" xmlns:xlink="http://www.w3.org/1999/xlink">
    <!-- Generator: Sketch 41.2 (35397) - http://www.bohemiancoding.com/sketch -->
    <title>Arrow</title>
    <desc>Created with Sketch.</desc>
    <defs></defs>
    <g id="Page-1" stroke="none" stroke-width="1" fill="none" fill-rule="evenodd">
        <g id="3..-header" transform="translate(-449.000000, -55.000000)" fill="#FFFFFF">
            <g id="Group-2-Copy" transform="translate(84.000000, 26.000000)">
                <g id="top">
                    <g id="main-nav" transform="translate(285.000000, 22.000000)">
                        <g id="ACTIVE" transform="translate(0.000000, 4.000000)">
                            <path d="M82.0355339,5.03553391 L82.0355339,1.53323269 C82.0355339,1.25037766 81.8116763,1.03553391 81.5355339,1.03553391 C81.2674675,1.03553391 81.0355339,1.25836124 81.0355339,1.53323269 L81.0355339,5.53783512 C81.0355339,5.67886978 81.0911878,5.80299595 81.1812273,5.89201209 C81.2720836,5.97788147 81.3961898,6.03553391 81.5332327,6.03553391 L85.5378351,6.03553391 C85.8206902,6.03553391 86.0355339,5.81167628 86.0355339,5.53553391 C86.0355339,5.2674675 85.8127066,5.03553391 85.5378351,5.03553391 L82.0355339,5.03553391 Z" id="Arrow" transform="translate(83.535534, 3.535534) rotate(-45.000000) translate(-83.535534, -3.535534) "></path>
                        </g>
                    </g>
                </g>
            </g>
        </g>
    </g>
</svg>