<svg id="SvgjsSvg1008" xmlns="http://www.w3.org/2000/svg" version="1.1" xmlns:xlink="http://www.w3.org/1999/xlink" xmlns:svgjs="http://svgjs.com/svgjs" width="16" height="20" viewBox="0 0 16 20"><title>Fill 197</title><desc>Created with Avocode.</desc><defs id="SvgjsDefs1009"></defs><path id="SvgjsPath1010" d="M1325.56 38.82C1325.75 38.82 1325.9099999999999 38.9 1326.04 39.06C1326.17 39.21 1326.24 39.400000000000006 1326.24 39.63C1326.24 39.84 1326.18 40.050000000000004 1326.05 40.27C1325.9199999999998 40.480000000000004 1325.77 40.63 1325.6 40.7C1325.3899999999999 40.800000000000004 1325.08 40.92 1324.6899999999998 41.07C1324.2899999999997 41.22 1323.4799999999998 41.42 1322.2599999999998 41.660000000000004C1321.0399999999997 41.910000000000004 1319.8299999999997 42.03 1318.6199999999997 42.03C1317.4099999999996 42.03 1316.2299999999996 41.92 1315.0599999999997 41.7C1313.8999999999996 41.480000000000004 1313.0399999999997 41.260000000000005 1312.4799999999998 41.040000000000006L1311.6399999999999 40.720000000000006C1311.4599999999998 40.64000000000001 1311.31 40.49000000000001 1311.1899999999998 40.28000000000001C1311.0599999999997 40.06000000000001 1310.9999999999998 39.84000000000001 1310.9999999999998 39.63000000000001C1310.9999999999998 39.40000000000001 1311.0699999999997 39.21000000000001 1311.1999999999998 39.06000000000001C1311.33 38.90000000000001 1311.4899999999998 38.82000000000001 1311.6799999999998 38.82000000000001L1311.9299999999998 38.82000000000001L1313.6399999999999 36.050000000000004L1314.55 30.810000000000002C1314.69 29.990000000000002 1315.06 29.240000000000002 1315.6499999999999 28.560000000000002C1316.2399999999998 27.89 1316.9299999999998 27.450000000000003 1317.7399999999998 27.230000000000004L1317.4699999999998 26.720000000000002C1317.4199999999998 26.520000000000003 1317.4299999999998 26.35 1317.5199999999998 26.21C1317.6099999999997 26.07 1317.7399999999998 26 1317.9399999999998 26L1319.2999999999997 26C1319.4899999999998 26 1319.6299999999997 26.06 1319.7199999999998 26.17C1319.8099999999997 26.28 1319.8199999999997 26.44 1319.7599999999998 26.64L1319.4999999999998 27.23C1320.2999999999997 27.44 1320.9999999999998 27.88 1321.5899999999997 28.560000000000002C1322.1799999999996 29.240000000000002 1322.5399999999997 29.990000000000002 1322.6899999999996 30.810000000000002L1323.5999999999997 36.050000000000004L1325.3099999999997 38.82000000000001ZM1317.13 43.47C1317.24 44 1317.44 44.42 1317.71 44.75C1317.98 45.07 1318.28 45.24 1318.6200000000001 45.24C1318.96 45.24 1319.2600000000002 45.07 1319.5300000000002 44.75C1319.8000000000002 44.42 1319.9900000000002 44 1320.1000000000001 43.47C1319.63 43.54 1319.14 43.57 1318.6200000000001 43.57C1318.1000000000001 43.57 1317.6000000000001 43.54 1317.13 43.47Z " fill="#ffffff" fill-opacity="1" transform="matrix(1,0,0,1,-1311,-26)"></path></svg>