<svg id="SvgjsSvg1011" xmlns="http://www.w3.org/2000/svg" version="1.1" xmlns:xlink="http://www.w3.org/1999/xlink" xmlns:svgjs="http://svgjs.com/svgjs" width="16" height="15" viewBox="0 0 16 15"><title>icon</title><desc>Created with Avocode.</desc><defs id="SvgjsDefs1012"></defs><path id="SvgjsPath1013" d="M1904.29 776.43L1902.1399999999999 776.43L1902.1399999999999 775L1900.7099999999998 775L1900.7099999999998 779.29L1902.1399999999999 779.29L1902.1399999999999 777.86L1904.29 777.86L1904.29 788.57L1891.43 788.57L1891.43 777.86L1892.8600000000001 777.86L1892.8600000000001 776.4300000000001L1891.43 776.4300000000001C1890.64 776.4300000000001 1890 777.07 1890 777.86L1890 788.57C1890 789.36 1890.64 790 1891.43 790L1904.29 790C1905.07 790 1905.71 789.36 1905.71 788.57L1905.71 777.86C1905.71 777.07 1905.07 776.4300000000001 1904.29 776.4300000000001 " fill="#c5cbd7" fill-opacity="1" transform="matrix(1,0,0,1,-1890,-775)"></path><path id="SvgjsPath1014" d="M1894.43 777.86L1899.43 777.86L1899.43 776.4300000000001L1894.43 776.4300000000001L1894.43 775.0000000000001L1893 775.0000000000001L1893 779.2900000000001L1894.43 779.2900000000001Z " fill="#c5cbd7" fill-opacity="1" transform="matrix(1,0,0,1,-1890,-775)"></path><path id="SvgjsPath1015" d="M1894.86 780L1892 780L1892 782.86L1894.86 782.86Z " fill="#c5cbd7" fill-opacity="1" transform="matrix(1,0,0,1,-1890,-775)"></path><path id="SvgjsPath1016" d="M1898.86 780L1896 780L1896 782.86L1898.86 782.86Z " fill="#c5cbd7" fill-opacity="1" transform="matrix(1,0,0,1,-1890,-775)"></path><path id="SvgjsPath1017" d="M1900 782.86L1902.86 782.86L1902.86 780L1900 780Z " fill="#c5cbd7" fill-opacity="1" transform="matrix(1,0,0,1,-1890,-775)"></path><path id="SvgjsPath1018" d="M1892 786.86L1894.86 786.86L1894.86 784L1892 784Z " fill="#c5cbd7" fill-opacity="1" transform="matrix(1,0,0,1,-1890,-775)"></path><path id="SvgjsPath1019" d="M1896 786.86L1898.86 786.86L1898.86 784L1896 784Z " fill="#c5cbd7" fill-opacity="1" transform="matrix(1,0,0,1,-1890,-775)"></path></svg>