<svg id="SvgjsSvg1008" xmlns="http://www.w3.org/2000/svg" version="1.1" xmlns:xlink="http://www.w3.org/1999/xlink" xmlns:svgjs="http://svgjs.com/svgjs" width="20" height="4" viewBox="0 0 20 4"><title>Group 3</title><desc>Created with Avocode.</desc><defs id="SvgjsDefs1009"></defs><path id="SvgjsPath1010" d="M1075 516C1075 514.89543 1075.89543 514 1077 514C1078.10457 514 1079 514.89543 1079 516C1079 517.10457 1078.10457 518 1077 518C1075.89543 518 1075 517.10457 1075 516Z " fill="#676f8d" fill-opacity="0.46" transform="matrix(1,0,0,1,-1075,-514)"></path><path id="SvgjsPath1011" d="M1083 516C1083 514.89543 1083.89543 514 1085 514C1086.10457 514 1087 514.89543 1087 516C1087 517.10457 1086.10457 518 1085 518C1083.89543 518 1083 517.10457 1083 516Z " fill="#676f8d" fill-opacity="0.46" transform="matrix(1,0,0,1,-1075,-514)"></path><path id="SvgjsPath1012" d="M1091 516C1091 514.89543 1091.89543 514 1093 514C1094.10457 514 1095 514.89543 1095 516C1095 517.10457 1094.10457 518 1093 518C1091.89543 518 1091 517.10457 1091 516Z " fill="#676f8d" fill-opacity="0.46" transform="matrix(1,0,0,1,-1075,-514)"></path></svg>