<svg id="SvgjsSvg1131" xmlns="http://www.w3.org/2000/svg" version="1.1" xmlns:xlink="http://www.w3.org/1999/xlink" xmlns:svgjs="http://svgjs.com/svgjs" width="11" height="11" viewBox="0 0 11 11"><title>Shape</title><desc>Created with Avocode.</desc><defs id="SvgjsDefs1132"></defs><path id="SvgjsPath1133" d="M422.5 4852C419.47 4852 417 4854.47 417 4857.5C417 4860.53 419.47 4863 422.5 4863C425.53 4863 428 4860.53 428 4857.5C428 4854.47 425.53 4852 422.5 4852ZM422.5 4862.35C419.82 4862.35 417.65 4860.18 417.65 4857.5C417.65 4854.82 419.82 4852.65 422.5 4852.65C425.18 4852.65 427.35 4854.82 427.35 4857.5C427.35 4860.18 425.18 4862.35 422.5 4862.35ZM422.58 4859.24C422.21 4859.24 421.90999999999997 4859.54 421.90999999999997 4859.91C421.90999999999997 4860.2699999999995 422.21 4860.57 422.58 4860.57C422.95 4860.57 423.25 4860.2699999999995 423.25 4859.91C423.25 4859.54 422.95 4859.24 422.58 4859.24ZM424.25 4855.93C424.1 4856.59 423.71 4856.9400000000005 423.37 4857.25C423.02 4857.57 422.76 4857.79 422.76 4858.32H422.12C422.12 4857.509999999999 422.55 4857.11 422.93 4856.7699999999995C423.23 4856.499999999999 423.51 4856.249999999999 423.62 4855.78C423.65 4855.69 423.6 4855.389999999999 423.39 4855.13C423.19 4854.88 422.91999999999996 4854.75 422.58 4854.75C421.43 4854.75 421.37 4855.68 421.37 4855.79L420.72 4855.7699999999995C420.74 4855.2 421.15000000000003 4854.099999999999 422.58000000000004 4854.099999999999C423.11 4854.099999999999 423.58000000000004 4854.32 423.90000000000003 4854.73C424.19000000000005 4855.089999999999 424.34000000000003 4855.589999999999 424.25000000000006 4855.929999999999Z " fill="#9da0ba" fill-opacity="1" transform="matrix(1,0,0,1,-417,-4852)"></path></svg>