<svg id="SvgjsSvg1094" xmlns="http://www.w3.org/2000/svg" version="1.1" xmlns:xlink="http://www.w3.org/1999/xlink" xmlns:svgjs="http://svgjs.com/svgjs" width="15" height="15" viewBox="0 0 15 15"><title>power</title><desc>Created with Avocode.</desc><defs id="SvgjsDefs1095"><filter id="SvgjsFilter1097" width="200%" height="200%" x="-50%" y="-50%"><feMorphology id="SvgjsFeMorphology1098" operator="dilate" radius="0" result="SvgjsFeMorphology1098Out" in="SourceGraphic"></feMorphology><feOffset id="SvgjsFeOffset1099" dx="0" dy="0" result="SvgjsFeOffset1099Out" in="SvgjsFeMorphology1098Out"></feOffset><feGaussianBlur id="SvgjsFeGaussianBlur1100" stdDeviation="1.5 " result="SvgjsFeGaussianBlur1100Out" in="SvgjsFeOffset1099Out"></feGaussianBlur><feComposite id="SvgjsFeComposite1101" in="SvgjsFeGaussianBlur1100Out" in2="SourceAlpha" operator="out" result="SvgjsFeComposite1101Out"></feComposite></filter></defs><path id="SvgjsPath1096" d="M1080 2121.5C1080 2119.01 1077.99 2117 1075.5 2117C1073.01 2117 1071 2119.01 1071 2121.5C1071 2123.99 1073.01 2126 1075.5 2126C1077.99 2126 1080 2123.99 1080 2121.5ZM1071.56 2121.5C1071.56 2119.33 1073.33 2117.56 1075.5 2117.56C1077.67 2117.56 1079.44 2119.33 1079.44 2121.5C1079.44 2123.67 1077.67 2125.44 1075.5 2125.44C1073.33 2125.44 1071.56 2123.67 1071.56 2121.5ZM1074.43 2121.98C1074.1200000000001 2121.98 1073.99 2121.77 1074.16 2121.5L1075.64 2119.07C1075.97 2118.51 1076.0800000000002 2118.56 1075.88 2119.1800000000003L1075.42 2120.55C1075.3200000000002 2120.84 1075.5 2121.0800000000004 1075.8100000000002 2121.0800000000004H1076.7000000000003C1077.0100000000002 2121.0800000000004 1077.1300000000003 2121.3 1076.9700000000003 2121.5600000000004L1075.5500000000002 2123.8900000000003C1075.1800000000003 2124.5000000000005 1075.0600000000002 2124.4500000000003 1075.2900000000002 2123.7700000000004L1075.7000000000003 2122.5200000000004C1075.8000000000002 2122.2200000000003 1075.6300000000003 2121.9800000000005 1075.3200000000002 2121.9800000000005Z " fill="#72e08a" fill-opacity="0.19" filter="url(#SvgjsFilter1097)" transform="matrix(1,0,0,1,-1068,-2114)"></path><path id="SvgjsPath1102" d="M1080 2121.5C1080 2119.01 1077.99 2117 1075.5 2117C1073.01 2117 1071 2119.01 1071 2121.5C1071 2123.99 1073.01 2126 1075.5 2126C1077.99 2126 1080 2123.99 1080 2121.5ZM1071.56 2121.5C1071.56 2119.33 1073.33 2117.56 1075.5 2117.56C1077.67 2117.56 1079.44 2119.33 1079.44 2121.5C1079.44 2123.67 1077.67 2125.44 1075.5 2125.44C1073.33 2125.44 1071.56 2123.67 1071.56 2121.5ZM1074.43 2121.98C1074.1200000000001 2121.98 1073.99 2121.77 1074.16 2121.5L1075.64 2119.07C1075.97 2118.51 1076.0800000000002 2118.56 1075.88 2119.1800000000003L1075.42 2120.55C1075.3200000000002 2120.84 1075.5 2121.0800000000004 1075.8100000000002 2121.0800000000004H1076.7000000000003C1077.0100000000002 2121.0800000000004 1077.1300000000003 2121.3 1076.9700000000003 2121.5600000000004L1075.5500000000002 2123.8900000000003C1075.1800000000003 2124.5000000000005 1075.0600000000002 2124.4500000000003 1075.2900000000002 2123.7700000000004L1075.7000000000003 2122.5200000000004C1075.8000000000002 2122.2200000000003 1075.6300000000003 2121.9800000000005 1075.3200000000002 2121.9800000000005Z " fill="#47c679" fill-opacity="1" transform="matrix(1,0,0,1,-1068,-2114)"></path></svg>