<?xml version="1.0" encoding="UTF-8" standalone="no"?>
<svg width="43px" height="47px" viewBox="0 0 43 47" version="1.1" xmlns="http://www.w3.org/2000/svg" xmlns:xlink="http://www.w3.org/1999/xlink">
    <!-- Generator: Sketch 41 (35326) - http://www.bohemiancoding.com/sketch -->
    <title>Combined Shape</title>
    <desc>Created with Sketch.</desc>
    <defs>
        <linearGradient x1="100%" y1="18.5749154%" x2="12.3074619%" y2="82.3330194%" id="linearGradient-1">
            <stop stop-color="#00FFE1" offset="0%"></stop>
            <stop stop-color="#00A3D3" offset="100%"></stop>
        </linearGradient>
    </defs>
    <g id="Page-1" stroke="none" stroke-width="1" fill="none" fill-rule="evenodd">
        <g id="4.forgot-password" transform="translate(-699.000000, -93.000000)" fill="url(#linearGradient-1)">
            <path d="M741.005147,106.935709 C741.005147,106.901713 741.001857,106.866621 741.00076,106.832155 L722.532194,116.45543 L741.004363,126.080271 L741.004363,126.064605 L741.005147,106.935709 Z M738.482732,102.917642 L722.22122,93.5287341 C721.001293,92.8237553 719.00495,92.8237553 717.784866,93.5287341 L701.218177,103.093887 C700.657014,103.417707 700.144416,103.959445 699.751977,104.586092 L717.291068,113.724968 L719.530394,114.891787 L738.408161,102.875814 L738.482732,102.917642 Z M716.080384,115.822829 L699.414371,105.214307 C699.154782,105.78346 699,106.383945 699,106.935709 L699,126.064135 C699,126.593339 699.143032,127.167035 699.383822,127.715195 L716.080854,117.087091 L717.074248,116.454803 L716.080384,115.822829 Z M719.531021,118.019856 L717.292165,119.186518 L699.713125,128.34529 C700.109167,129.00092 700.637431,129.571013 701.218177,129.906739 L717.78377,139.471266 C719.003697,140.176245 721.00004,140.176245 722.220123,139.471266 L738.481636,130.082514 L719.531021,118.019856 Z" id="Combined-Shape"></path>
        </g>
    </g>
</svg>