<svg id="SvgjsSvg1000" xmlns="http://www.w3.org/2000/svg" version="1.1" xmlns:xlink="http://www.w3.org/1999/xlink" xmlns:svgjs="http://svgjs.com/svgjs" width="14" height="14" viewBox="0 0 14 14"><title>Shape</title><desc>Created with Avocode.</desc><defs id="SvgjsDefs1001"></defs><path id="SvgjsPath1007" d="M351.29 37.68C352.18 36.65 352.72 35.32 352.72 33.86C352.72 30.63 350.09000000000003 28 346.86 28C343.63 28 341 30.63 341 33.86C341 37.089999999999996 343.63 39.72 346.86 39.72C348.32 39.72 349.65000000000003 39.18 350.68 38.29L354.26 41.87C354.34 41.96 354.45 42 354.57 42C354.68 42 354.79 41.96 354.87 41.87C355.04 41.699999999999996 355.04 41.43 354.87 41.26ZM341.87 33.86C341.87 31.11 344.11 28.869999999999997 346.86 28.869999999999997C349.61 28.869999999999997 351.85 31.11 351.85 33.86C351.85 36.61 349.61 38.85 346.86 38.85C344.11 38.85 341.87 36.61 341.87 33.86Z " fill="#67708d" fill-opacity="1" transform="matrix(1,0,0,1,-341,-28)"></path></svg>