<svg id="SvgjsSvg1000" xmlns="http://www.w3.org/2000/svg" version="1.1" xmlns:xlink="http://www.w3.org/1999/xlink" xmlns:svgjs="http://svgjs.com/svgjs" width="14" height="24" viewBox="0 0 14 24"><title>icon</title><desc>Created with Avocode.</desc><defs id="SvgjsDefs1001"></defs><path id="SvgjsPath1007" d="M35.98 203.02C35.98 205.95000000000002 33.3 210.38000000000002 31.58 212.82000000000002C29.869999999999997 210.38000000000002 27.2 205.95000000000002 27.2 203.02C27.2 200.44 29.16 198.34 31.59 198.34C34.01 198.34 35.98 200.44 35.98 203.02ZM38.17 203.02C38.17 199.15 35.22 196 31.590000000000003 196C27.950000000000003 196 25.000000000000004 199.15 25.000000000000004 203.02C25.000000000000004 207.39000000000001 28.950000000000003 213.17000000000002 31.590000000000003 216.54000000000002C34.220000000000006 213.17000000000002 38.17 207.39000000000001 38.17 203.02Z " fill="#ffffff" fill-opacity="1" transform="matrix(1,0,0,1,-25,-196)"></path><path id="SvgjsPath1008" d="M33.39 203.34C33.39 202.05 32.410000000000004 201 31.2 201C29.98 201 29 202.05 29 203.34C29 204.63 29.98 205.68 31.2 205.68C32.41 205.68 33.39 204.63 33.39 203.34 " fill="#ffffff" fill-opacity="1" transform="matrix(1,0,0,1,-25,-196)"></path><path id="SvgjsPath1009" d="M27 219.34L35.78 219.34L35.78 217L27 217Z " fill="#ffffff" fill-opacity="1" transform="matrix(1,0,0,1,-25,-196)"></path></svg>