<svg id="SvgjsSvg1106" xmlns="http://www.w3.org/2000/svg" version="1.1" xmlns:xlink="http://www.w3.org/1999/xlink" xmlns:svgjs="http://svgjs.com/svgjs" width="11" height="11" viewBox="0 0 11 11"><title>Shape</title><desc>Created with Avocode.</desc><defs id="SvgjsDefs1107"><clipPath id="SvgjsClipPath1112"><path id="SvgjsPath1111" d="M1000 3802C1000 3801.44772 1000.44772 3801 1001 3801H1010C1010.55228 3801 1011 3801.44772 1011 3802V3811C1011 3811.55228 1010.55228 3812 1010 3812H1001C1000.44772 3812 1000 3811.55228 1000 3811Z " fill="#ffffff"></path></clipPath></defs><path id="SvgjsPath1108" d="M1008 3806.33H1005.67H1005.3299999999999H1002.9999999999999V3806H1005.3299999999999H1005.67H1008Z " fill="#b1b4cd" fill-opacity="1" transform="matrix(1,0,0,1,-1000,-3801)"></path><path id="SvgjsPath1109" d="M1008 3806.33H1005.67H1005.3299999999999H1002.9999999999999V3806H1005.3299999999999H1005.67H1008Z " fill-opacity="0" fill="#ffffff" stroke-dasharray="0" stroke-linejoin="miter" stroke-linecap="butt" stroke-opacity="1" stroke="#bbbed7" stroke-miterlimit="50" stroke-width="0.3" transform="matrix(1,0,0,1,-1000,-3801)"></path><path id="SvgjsPath1110" d="M1000 3802C1000 3801.44772 1000.44772 3801 1001 3801H1010C1010.55228 3801 1011 3801.44772 1011 3802V3811C1011 3811.55228 1010.55228 3812 1010 3812H1001C1000.44772 3812 1000 3811.55228 1000 3811Z " fill-opacity="0" fill="#ffffff" stroke-dasharray="0" stroke-linejoin="miter" stroke-linecap="butt" stroke-opacity="1" stroke="#bbbed7" stroke-miterlimit="50" stroke-width="1.4" clip-path="url(&quot;#SvgjsClipPath1112&quot;)" transform="matrix(1,0,0,1,-1000,-3801)"></path></svg>