<svg id="SvgjsSvg1000" xmlns="http://www.w3.org/2000/svg" version="1.1" xmlns:xlink="http://www.w3.org/1999/xlink" xmlns:svgjs="http://svgjs.com/svgjs" width="15" height="16" viewBox="0 0 15 16"><title>Fill 197</title><desc>Created with Avocode.</desc><defs id="SvgjsDefs1001"></defs><path id="SvgjsPath1007" d="M1343.4 32.67C1343.5800000000002 32.67 1343.73 32.730000000000004 1343.8500000000001 32.86C1343.97 32.99 1344.0300000000002 33.15 1344.0300000000002 33.33C1344.0300000000002 33.51 1343.9700000000003 33.69 1343.8500000000001 33.87C1343.7400000000002 34.04 1343.6000000000001 34.16 1343.44 34.23C1343.24 34.309999999999995 1342.96 34.41 1342.6000000000001 34.529999999999994C1342.2400000000002 34.66 1341.4900000000002 34.81999999999999 1340.3700000000001 35.029999999999994C1339.24 35.23 1338.1200000000001 35.32999999999999 1337.0100000000002 35.32999999999999C1335.9000000000003 35.32999999999999 1334.8100000000002 35.23999999999999 1333.7400000000002 35.05999999999999C1332.6700000000003 34.87999999999999 1331.8800000000003 34.68999999999999 1331.3600000000001 34.50999999999999L1330.5900000000001 34.23999999999999C1330.43 34.179999999999986 1330.2900000000002 34.05999999999999 1330.17 33.86999999999999C1330.0600000000002 33.68999999999999 1330 33.50999999999999 1330 33.32999999999999C1330 33.14999999999999 1330.06 32.98999999999999 1330.18 32.85999999999999C1330.3 32.72999999999999 1330.45 32.669999999999995 1330.63 32.669999999999995L1330.8500000000001 32.669999999999995L1332.43 30.359999999999996L1333.27 25.999999999999996C1333.4 25.319999999999997 1333.74 24.689999999999998 1334.28 24.129999999999995C1334.82 23.569999999999997 1335.46 23.199999999999996 1336.2 23.029999999999994L1335.96 22.599999999999994C1335.91 22.429999999999993 1335.92 22.289999999999996 1336 22.169999999999995C1336.08 22.059999999999995 1336.21 21.999999999999993 1336.39 21.999999999999993L1337.64 21.999999999999993C1337.8200000000002 21.999999999999993 1337.95 22.049999999999994 1338.0300000000002 22.139999999999993C1338.1100000000001 22.229999999999993 1338.1200000000001 22.359999999999992 1338.0700000000002 22.529999999999994L1337.8300000000002 23.029999999999994C1338.5600000000002 23.199999999999996 1339.2 23.559999999999995 1339.7500000000002 24.129999999999995C1340.2900000000002 24.689999999999994 1340.6300000000003 25.319999999999997 1340.7600000000002 25.999999999999996L1341.6000000000001 30.359999999999996L1343.17 32.669999999999995ZM1335.64 36.53C1335.75 36.97 1335.92 37.32 1336.17 37.59C1336.42 37.86000000000001 1336.7 38 1337.01 38C1337.32 38 1337.6 37.86 1337.85 37.59C1338.1 37.32 1338.28 36.970000000000006 1338.37 36.53C1337.9499999999998 36.59 1337.4899999999998 36.61 1337.01 36.61C1336.53 36.61 1336.08 36.589999999999996 1335.64 36.53Z " fill="#ffffff" fill-opacity="1" transform="matrix(1,0,0,1,-1330,-22)"></path></svg>