<svg id="SvgjsSvg1113" xmlns="http://www.w3.org/2000/svg" version="1.1" xmlns:xlink="http://www.w3.org/1999/xlink" xmlns:svgjs="http://svgjs.com/svgjs" width="13" height="9" viewBox="0 0 13 9"><title>Shape</title><desc>Created with Avocode.</desc><defs id="SvgjsDefs1114"></defs><path id="SvgjsPath1115" d="M429 4484.95V4485.36H424.28V4484.549999999999H428.21999999999997C428.14 4483.159999999999 427.61999999999995 4481.9 426.80999999999995 4480.919999999999L426.19999999999993 4481.579999999999L425.6599999999999 4480.999999999999L426.2699999999999 4480.339999999999C425.3499999999999 4479.48 424.17999999999995 4478.929999999999 422.87999999999994 4478.839999999999V4481.2699999999995H422.11999999999995V4478.839999999999C420.81999999999994 4478.929999999999 419.6499999999999 4479.48 418.72999999999996 4480.339999999999L419.34 4480.989999999999L418.79999999999995 4481.569999999999L418.18999999999994 4480.919999999999C417.37999999999994 4481.899999999999 416.85999999999996 4483.159999999999 416.7799999999999 4484.549999999999H420.7299999999999V4485.36H415.9999999999999V4484.95C415.9999999999999 4481.12 418.9199999999999 4478 422.4999999999999 4478C426.07999999999987 4478 428.9999999999999 4481.12 428.9999999999999 4484.95ZM424.03 4484.95C424.03 4485.86 423.34 4486.59 422.5 4486.59C421.66 4486.59 420.97 4485.860000000001 420.97 4484.95C420.97 4484.429999999999 421.21000000000004 4483.96 421.57000000000005 4483.66L419.9800000000001 4480.69L420.6400000000001 4480.29L422.2800000000001 4483.34C422.3500000000001 4483.33 422.4200000000001 4483.32 422.5000000000001 4483.32C423.3400000000001 4483.32 424.0300000000001 4484.049999999999 424.0300000000001 4484.95ZM423.26 4484.95C423.26 4484.5 422.92 4484.139999999999 422.5 4484.139999999999C422.08 4484.139999999999 421.74 4484.499999999999 421.74 4484.95C421.74 4485.41 422.08 4485.7699999999995 422.5 4485.7699999999995C422.92 4485.7699999999995 423.26 4485.41 423.26 4484.95Z " fill="#9da0ba" fill-opacity="1" transform="matrix(1,0,0,1,-416,-4478)"></path></svg>