<svg id="SvgjsSvg1000" xmlns="http://www.w3.org/2000/svg" version="1.1" xmlns:xlink="http://www.w3.org/1999/xlink" xmlns:svgjs="http://svgjs.com/svgjs" width="10" height="10" viewBox="0 0 10 10"><title>Shape</title><desc>Created with Avocode.</desc><defs id="SvgjsDefs1001"></defs><path id="SvgjsPath1007" d="M908.31 2251.02C908.75 2249.85 909.64 2248.93 910.78 2248.41C911.4 2248.14 912.03 2248 912.68 2248C913.25 2248 913.8199999999999 2248.11 914.3599999999999 2248.32C916.1599999999999 2249.01 917.3699999999999 2250.77 917.3699999999999 2252.7000000000003H916.7299999999999C916.7299999999999 2251.0400000000004 915.6899999999999 2249.5000000000005 914.1199999999999 2248.9C913.1099999999999 2248.51 911.9999999999999 2248.54 911.0199999999999 2248.98C910.0199999999999 2249.43 909.2599999999999 2250.22 908.8799999999999 2251.23C908.0999999999999 2253.34 909.1499999999999 2255.7 911.2399999999999 2256.5C913.1899999999999 2257.26 915.3899999999999 2256.39 916.31 2254.56L915.39 2254.97L915.13 2254.3799999999997L917.11 2253.5099999999998L918 2255.49L917.41 2255.74L916.9499999999999 2254.7C915.93 2256.8999999999996 913.3299999999999 2257.98 911.02 2257.0899999999997C908.59 2256.16 907.39 2253.43 908.31 2251.0199999999995Z " fill="#bbbed7" fill-opacity="1" transform="matrix(1,0,0,1,-908,-2248)"></path></svg>