<svg id="SvgjsSvg1091" xmlns="http://www.w3.org/2000/svg" version="1.1" xmlns:xlink="http://www.w3.org/1999/xlink" xmlns:svgjs="http://svgjs.com/svgjs" width="11" height="11" viewBox="0 0 11 11"><title>Shape</title><desc>Created with Avocode.</desc><defs id="SvgjsDefs1092"></defs><path id="SvgjsPath1093" d="M995.66 2121.5L998.02 2123.86L997.5699999999999 2124.32L994.7499999999999 2121.5L997.5699999999999 2118.68L998.02 2119.14ZM996.5 2116C993.47 2116 991 2118.47 991 2121.5C991 2124.53 993.47 2127 996.5 2127C999.53 2127 1002 2124.53 1002 2121.5C1002 2118.47 999.53 2116 996.5 2116ZM996.5 2126.35C993.82 2126.35 991.65 2124.18 991.65 2121.5C991.65 2118.82 993.8199999999999 2116.65 996.5 2116.65C999.18 2116.65 1001.35 2118.82 1001.35 2121.5C1001.35 2124.18 999.1800000000001 2126.35 996.5 2126.35Z " fill="#bbbed7" fill-opacity="1" transform="matrix(1,0,0,1,-991,-2116)"></path></svg>