<svg id="SvgjsSvg1128" xmlns="http://www.w3.org/2000/svg" version="1.1" xmlns:xlink="http://www.w3.org/1999/xlink" xmlns:svgjs="http://svgjs.com/svgjs" width="11" height="12" viewBox="0 0 11 12"><title>Shape</title><desc>Created with Avocode.</desc><defs id="SvgjsDefs1129"></defs><path id="SvgjsPath1130" d="M420.88 4795.67C420.88 4796.59 421.61 4797.33 422.5 4797.33C423.39 4797.33 424.12 4796.59 424.12 4795.67C424.12 4794.75 423.39 4794 422.5 4794C421.61 4794 420.88 4794.75 420.88 4795.67ZM422.5 4796.67C421.96 4796.67 421.53 4796.22 421.53 4795.67C421.53 4795.12 421.96 4794.67 422.5 4794.67C423.04 4794.67 423.47 4795.12 423.47 4795.67C423.47 4796.22 423.04 4796.67 422.5 4796.67ZM427.96 4796.32L426.28999999999996 4796.83C426.21 4797.1 426.10999999999996 4797.36 425.97999999999996 4797.6L426.80999999999995 4799.18C426.53999999999996 4799.52 426.23999999999995 4799.83 425.90999999999997 4800.1L424.38 4799.25C424.14 4799.38 423.89 4799.49 423.63 4799.57L423.13 4801.29C422.92 4801.32 422.71 4801.33 422.5 4801.33C422.29 4801.33 422.08 4801.32 421.87 4801.29L421.37 4799.57C421.11 4799.49 420.86 4799.38 420.62 4799.25L419.09000000000003 4800.1C418.75000000000006 4799.83 418.46000000000004 4799.530000000001 418.19000000000005 4799.18L419.02000000000004 4797.6C418.89000000000004 4797.360000000001 418.79 4797.1 418.71000000000004 4796.83L417.04 4796.32C417.01000000000005 4796.099999999999 417 4795.889999999999 417 4795.67C417 4795.45 417.01 4795.2300000000005 417.04 4795.02L418.71000000000004 4794.5C418.79 4794.23 418.89000000000004 4793.97 419.02000000000004 4793.73L418.19000000000005 4792.15C418.46000000000004 4791.8099999999995 418.75000000000006 4791.5 419.09000000000003 4791.23L420.62 4792.08C420.86 4791.95 421.11 4791.84 421.37 4791.7699999999995L421.87 4790.04C422.08 4790.0199999999995 422.29 4790 422.5 4790C422.71 4790 422.92 4790.02 423.13 4790.04L423.63 4791.7699999999995C423.89 4791.849999999999 424.14 4791.95 424.38 4792.08L425.90999999999997 4791.23C426.24999999999994 4791.5 426.53999999999996 4791.8099999999995 426.80999999999995 4792.15L425.97999999999996 4793.73C426.10999999999996 4793.969999999999 426.21 4794.23 426.28999999999996 4794.5L427.96 4795.02C427.98999999999995 4795.2300000000005 428 4795.450000000001 428 4795.67C428 4795.89 427.99 4796.1 427.96 4796.32ZM425.77 4796.3L427.34999999999997 4795.81C427.34999999999997 4795.76 427.34999999999997 4795.71 427.34999999999997 4795.67C427.34999999999997 4795.62 427.34999999999997 4795.57 427.34999999999997 4795.52L426.09999999999997 4795.14L425.77 4795.030000000001L425.66999999999996 4794.6900000000005C425.59999999999997 4794.47 425.52 4794.250000000001 425.40999999999997 4794.05L425.23999999999995 4793.7300000000005L425.40999999999997 4793.42L426.03 4792.24C425.96 4792.17 425.9 4792.099999999999 425.83 4792.03L424.38 4792.84L424.07 4792.67C423.87 4792.56 423.65999999999997 4792.47 423.45 4792.4L423.11 4792.299999999999L423.01 4791.959999999999L422.64 4790.669999999999C422.59 4790.669999999999 422.55 4790.669999999999 422.5 4790.669999999999C422.45 4790.669999999999 422.41 4790.669999999999 422.36 4790.669999999999L421.99 4791.959999999999L421.89 4792.299999999999L421.55 4792.4C421.33 4792.469999999999 421.13 4792.5599999999995 420.93 4792.67L420.62 4792.84L419.17 4792.03C419.1 4792.099999999999 419.04 4792.17 418.97 4792.24L419.76000000000005 4793.73L419.59000000000003 4794.049999999999C419.48 4794.249999999999 419.40000000000003 4794.469999999999 419.33000000000004 4794.69L419.23 4795.04L417.65000000000003 4795.5199999999995C417.65000000000003 4795.57 417.65000000000003 4795.62 417.65000000000003 4795.669999999999C417.65000000000003 4795.709999999999 417.65000000000003 4795.759999999999 417.65000000000003 4795.8099999999995L419.23 4796.299999999999L419.33000000000004 4796.639999999999C419.40000000000003 4796.869999999999 419.48 4797.079999999999 419.59000000000003 4797.28L419.76000000000005 4797.599999999999L418.97 4799.089999999999C419.04 4799.159999999999 419.1 4799.23 419.17 4799.299999999999L420.62 4798.489999999999L420.93 4798.659999999999C421.13 4798.769999999999 421.33 4798.859999999999 421.55 4798.929999999999L421.89 4799.03L421.99 4799.38L422.36 4800.66C422.41 4800.67 422.45 4800.67 422.5 4800.67C422.55 4800.67 422.59 4800.67 422.64 4800.66L423.01 4799.38L423.11 4799.03L423.45 4798.929999999999C423.67 4798.86 423.87 4798.7699999999995 424.07 4798.659999999999L424.38 4798.489999999999L425.83 4799.299999999999C425.9 4799.23 425.96 4799.169999999999 426.03 4799.099999999999L425.40999999999997 4797.919999999999L425.23999999999995 4797.599999999999L425.40999999999997 4797.28C425.52 4797.08 425.59999999999997 4796.87 425.66999999999996 4796.639999999999Z " fill="#9da0ba" fill-opacity="1" transform="matrix(1,0,0,1,-417,-4790)"></path></svg>