<svg id="SvgjsSvg1116" xmlns="http://www.w3.org/2000/svg" version="1.1" xmlns:xlink="http://www.w3.org/1999/xlink" xmlns:svgjs="http://svgjs.com/svgjs" width="10" height="10" viewBox="0 0 10 10"><title>Shape</title><desc>Created with Avocode.</desc><defs id="SvgjsDefs1117"></defs><path id="SvgjsPath1118" d="M428 4543.06C428 4541.72 425.42 4541 423 4541C420.58 4541 418 4541.72 418 4543.06C418 4543.150000000001 418.01 4543.25 418.05 4543.35H418V4548.9400000000005C418 4550.280000000001 420.58 4551.000000000001 423 4551.000000000001C425.42 4551.000000000001 428 4550.280000000001 428 4548.9400000000005V4543.35H427.95C427.99 4543.25 428 4543.150000000001 428 4543.06ZM423 4541.59C425.53 4541.59 427.41 4542.360000000001 427.41 4543.06C427.41 4543.29 427.18 4543.55 426.77000000000004 4543.780000000001C425.93000000000006 4544.250000000001 424.53000000000003 4544.530000000001 423.00000000000006 4544.530000000001C421.4700000000001 4544.530000000001 420.07000000000005 4544.250000000001 419.2300000000001 4543.780000000001C418.82000000000005 4543.550000000001 418.5900000000001 4543.290000000001 418.5900000000001 4543.06C418.5900000000001 4542.360000000001 420.4700000000001 4541.59 423.0000000000001 4541.59ZM418.59 4548.94V4547.98C418.69 4548.0599999999995 418.79999999999995 4548.139999999999 418.94 4548.219999999999C419.86 4548.73 421.38 4549.039999999999 423 4549.039999999999C423.2 4549.039999999999 423.4 4549.029999999999 423.6 4549.019999999999C424.99 4548.959999999998 426.25 4548.669999999998 427.06 4548.219999999998C427.2 4548.1399999999985 427.31 4548.059999999999 427.41 4547.979999999999V4548.939999999999C427.41 4549.6399999999985 425.53000000000003 4550.409999999999 423 4550.409999999999C420.47 4550.409999999999 418.59 4549.6399999999985 418.59 4548.939999999999ZM426.77 4547.7C425.93 4548.17 424.53 4548.45 423 4548.45C422.81 4548.45 422.62 4548.45 422.43 4548.44C421.13 4548.379999999999 419.96 4548.11 419.23 4547.7C418.82 4547.47 418.59000000000003 4547.21 418.59000000000003 4546.98V4546.0199999999995C418.69000000000005 4546.099999999999 418.8 4546.179999999999 418.94000000000005 4546.259999999999C419.86000000000007 4546.7699999999995 421.38000000000005 4547.079999999999 423.00000000000006 4547.079999999999C424.62000000000006 4547.079999999999 426.14000000000004 4546.769999999999 427.06000000000006 4546.259999999999C427.20000000000005 4546.179999999999 427.31000000000006 4546.099999999999 427.4100000000001 4546.0199999999995V4546.98C427.4100000000001 4547.209999999999 427.18000000000006 4547.469999999999 426.7700000000001 4547.7ZM426.77 4545.74C425.93 4546.21 424.53 4546.49 423 4546.49C421.47 4546.49 420.07 4546.21 419.23 4545.74C418.82 4545.51 418.59000000000003 4545.25 418.59000000000003 4545.0199999999995V4544.0599999999995C418.69000000000005 4544.139999999999 418.8 4544.219999999999 418.94000000000005 4544.299999999999C419.86000000000007 4544.8099999999995 421.38000000000005 4545.119999999999 423.00000000000006 4545.119999999999C424.62000000000006 4545.119999999999 426.14000000000004 4544.809999999999 427.06000000000006 4544.299999999999C427.20000000000005 4544.219999999999 427.31000000000006 4544.139999999999 427.4100000000001 4544.0599999999995V4545.0199999999995C427.4100000000001 4545.249999999999 427.18000000000006 4545.509999999999 426.7700000000001 4545.74Z " fill="#bbbed7" fill-opacity="1" transform="matrix(1,0,0,1,-418,-4541)"></path></svg>